<svg width="247" height="60" viewBox="0 0 247 60" fill="none" xmlns="http://www.w3.org/2000/svg">
<path fill-rule="evenodd" clip-rule="evenodd" d="M4.35363 0H242.322C244.717 0 246.676 1.95807 246.676 4.3542V54.9183C246.676 57.3123 244.717 59.2709 242.322 59.2709H4.35363C1.95858 59.2709 0 57.3123 0 54.9183V4.3542C0 1.95807 1.95858 0 4.35363 0Z" fill="#FFCB00"/>
<path fill-rule="evenodd" clip-rule="evenodd" d="M159.641 2.50342H238.742C241.137 2.50342 243.095 4.46199 243.095 6.85645V52.4145C243.095 54.8084 241.137 56.7687 238.742 56.7687H159.641V2.50342Z" fill="white"/>
<path fill-rule="evenodd" clip-rule="evenodd" d="M29.4447 13.8263L30.2093 18.7269C29.4223 18.434 28.6131 18.2092 27.781 18.059C26.9571 17.9018 26.1327 17.8272 25.3163 17.8272C21.8917 17.8272 19.0444 18.9439 16.7892 21.1763C14.5264 23.4102 13.395 26.2042 13.395 29.5684C13.395 33.1287 14.6009 36.0504 17.0063 38.3497C19.4118 40.6501 22.5136 41.7978 26.3051 41.7978C26.9048 41.7978 27.5263 41.7515 28.1706 41.6541C28.8156 41.5572 29.5045 41.4071 30.2539 41.2052L29.265 46.06C29.2052 46.0763 29.1225 46.0905 29.0027 46.098C27.8784 46.2477 27.0322 46.3228 26.4776 46.3228C21.0378 46.3228 16.6765 44.8023 13.4097 41.7592C10.1352 38.7105 8.50208 34.6633 8.50208 29.6131C8.50208 24.915 10.0454 21.0272 13.1327 17.947C16.2194 14.8668 20.1611 13.3234 24.9636 13.3234C25.4208 13.3234 25.8632 13.3312 26.2905 13.3533C26.7247 13.3762 27.1296 13.4138 27.5116 13.4583C27.7739 13.4971 28.1935 13.5787 28.7628 13.6984C29.0702 13.7582 29.295 13.8034 29.4447 13.8263ZM38.4888 13.1885V30.2726C39.1483 29.5537 39.8901 29.0063 40.7069 28.6395C41.5232 28.2646 42.3999 28.0773 43.337 28.0773C45.0529 28.0773 46.3264 28.6395 47.1731 29.7709C48.0123 30.8946 48.4319 32.6029 48.4319 34.9032V45.881L44.0635 46.2776V35.8475C44.0635 34.7161 43.8388 33.8541 43.3969 33.2549C42.9474 32.6551 42.3026 32.3558 41.4487 32.3558C40.4892 32.3558 39.7475 32.685 39.2458 33.3517C38.7435 34.0195 38.4888 35.0083 38.4888 36.3046V45.881L34.1205 46.2776V13.6538L38.4888 13.1885ZM58.7194 37.8713C57.9331 37.8713 57.2735 38.1108 56.7566 38.5821C56.2395 39.0626 55.9773 39.6313 55.9773 40.3067C55.9773 40.995 56.2319 41.5725 56.7413 42.0377C57.2583 42.5085 57.9179 42.7414 58.7194 42.7414C59.5063 42.7414 60.166 42.5085 60.683 42.0377C61.2 41.5725 61.4623 40.995 61.4623 40.3067C61.4623 39.6313 61.2 39.0626 60.6754 38.5821C60.1431 38.1108 59.4917 37.8713 58.7194 37.8713ZM65.6357 34.4244V45.8358L61.6343 46.2776V44.5852C61.1401 45.1985 60.548 45.6714 59.8585 45.993C59.1767 46.3163 58.3826 46.473 57.4907 46.473C55.8499 46.473 54.4861 45.9027 53.3923 44.7637C52.2908 43.6176 51.7439 42.1945 51.7439 40.4781C51.7439 38.6801 52.2984 37.2117 53.3999 36.081C54.5013 34.949 55.9473 34.3787 57.7306 34.3787C58.5399 34.3787 59.2518 34.5065 59.8813 34.7613C60.5104 35.0154 61.0351 35.3985 61.4623 35.8932V34.3335C61.4623 33.502 61.2375 32.9251 60.7804 32.6029C60.3309 32.2807 59.4988 32.1159 58.2999 32.1159C57.618 32.1159 56.9214 32.1762 56.2319 32.303C55.5353 32.4309 54.8382 32.6029 54.134 32.843L55.168 28.6694C56.1046 28.5344 56.9214 28.4446 57.6332 28.3842C58.345 28.3244 58.9747 28.2945 59.5364 28.2945C61.7545 28.2945 63.3278 28.6988 64.2497 29.5157C65.171 30.3249 65.6357 31.9662 65.6357 34.4244ZM84.4348 34.9032V45.881L80.0664 46.2776V35.8475C80.0664 34.7161 79.8417 33.8541 79.3997 33.2549C78.9502 32.6551 78.3054 32.3558 77.4515 32.3558C76.4921 32.3558 75.7503 32.685 75.2486 33.3517C74.7463 34.0195 74.4916 35.0083 74.4916 36.3046V45.881L70.1233 46.2776V28.7592L74.4916 28.2945V30.2726C75.1512 29.5537 75.8929 29.015 76.7098 28.6395C77.526 28.2646 78.4028 28.0773 79.3399 28.0773C81.0558 28.0773 82.3292 28.6395 83.176 29.7709C84.0151 30.8946 84.4348 32.6029 84.4348 34.9032ZM97.0526 32.2062C95.7117 32.2062 94.5651 32.7079 93.6208 33.712C92.6772 34.7084 92.2048 35.9231 92.2048 37.3386C92.2048 38.7769 92.6695 39.9834 93.6061 40.9727C94.5428 41.9621 95.6964 42.4562 97.0526 42.4562C98.4016 42.4562 99.5407 41.9621 100.47 40.9727C101.399 39.9834 101.863 38.7769 101.863 37.3386C101.863 35.9231 101.399 34.7084 100.47 33.712C99.5407 32.7079 98.4016 32.2062 97.0526 32.2062ZM106.186 13.1885V45.7906L101.774 46.1879V44.2102C101.099 44.9439 100.312 45.499 99.4133 45.8646C98.5138 46.2407 97.525 46.4284 96.4382 46.4284C94.0105 46.4284 91.9654 45.5429 90.2941 43.7825C88.6234 42.0214 87.7913 39.856 87.7913 37.294C87.7913 34.7547 88.661 32.5882 90.3915 30.7977C92.1297 29.015 94.2282 28.1231 96.7005 28.1231C97.7275 28.1231 98.6563 28.2874 99.4803 28.6243C100.305 28.9622 101.069 29.4857 101.774 30.1834V13.6538L106.186 13.1885ZM119.891 28.4294V32.7079C118.093 32.7378 116.857 33.0753 116.182 33.719C115.508 34.364 115.171 35.571 115.171 37.3386V45.881L110.802 46.2776V28.7592L115.171 28.2945V30.5583C115.725 29.8378 116.392 29.3066 117.171 28.9545C117.943 28.6014 118.85 28.4294 119.891 28.4294ZM128.111 37.8713C127.324 37.8713 126.665 38.1108 126.148 38.5821C125.631 39.0626 125.369 39.6313 125.369 40.3067C125.369 40.995 125.623 41.5725 126.133 42.0377C126.65 42.5085 127.309 42.7414 128.111 42.7414C128.898 42.7414 129.557 42.5085 130.074 42.0377C130.591 41.5725 130.854 40.995 130.854 40.3067C130.854 39.6313 130.591 39.0626 130.067 38.5821C129.534 38.1108 128.883 37.8713 128.111 37.8713ZM135.027 34.4244V45.8358L131.026 46.2776V44.5852C130.531 45.1985 129.939 45.6714 129.25 45.993C128.568 46.3163 127.774 46.473 126.882 46.473C125.241 46.473 123.877 45.9027 122.784 44.7637C121.682 43.6176 121.135 42.1945 121.135 40.4781C121.135 38.6801 121.69 37.2117 122.791 36.081C123.893 34.949 125.339 34.3787 127.122 34.3787C127.931 34.3787 128.643 34.5065 129.273 34.7613C129.902 35.0154 130.426 35.3985 130.854 35.8932V34.3335C130.854 33.502 130.629 32.9251 130.172 32.6029C129.722 32.2807 128.89 32.1159 127.691 32.1159C127.009 32.1159 126.313 32.1762 125.623 32.303C124.927 32.4309 124.23 32.6029 123.525 32.843L124.559 28.6694C125.496 28.5344 126.313 28.4446 127.025 28.3842C127.736 28.3244 128.366 28.2945 128.928 28.2945C131.146 28.2945 132.719 28.6988 133.641 29.5157C134.562 30.3249 135.027 31.9662 135.027 34.4244ZM145.367 37.8713C144.581 37.8713 143.921 38.1108 143.404 38.5821C142.887 39.0626 142.625 39.6313 142.625 40.3067C142.625 40.995 142.879 41.5725 143.389 42.0377C143.906 42.5085 144.565 42.7414 145.367 42.7414C146.154 42.7414 146.813 42.5085 147.33 42.0377C147.847 41.5725 148.11 40.995 148.11 40.3067C148.11 39.6313 147.847 39.0626 147.323 38.5821C146.791 38.1108 146.139 37.8713 145.367 37.8713ZM152.283 34.4244V45.8358L148.282 46.2776V44.5852C147.788 45.1985 147.195 45.6714 146.506 45.993C145.824 46.3163 145.03 46.473 144.138 46.473C142.497 46.473 141.134 45.9027 140.04 44.7637C138.938 43.6176 138.391 42.1945 138.391 40.4781C138.391 38.6801 138.946 37.2117 140.047 36.081C141.149 34.949 142.595 34.3787 144.378 34.3787C145.187 34.3787 145.899 34.5065 146.529 34.7613C147.158 35.0154 147.683 35.3985 148.11 35.8932V34.3335C148.11 33.502 147.885 32.9251 147.428 32.6029C146.978 32.2807 146.146 32.1159 144.947 32.1159C144.265 32.1159 143.569 32.1762 142.879 32.303C142.183 32.4309 141.486 32.6029 140.781 32.843L141.815 28.6694C142.752 28.5344 143.569 28.4446 144.281 28.3842C144.993 28.3244 145.622 28.2945 146.184 28.2945C148.402 28.2945 149.975 28.6988 150.897 29.5157C151.818 30.3249 152.283 31.9662 152.283 34.4244Z" fill="#95001E"/>
<path fill-rule="evenodd" clip-rule="evenodd" d="M185.757 22.4317L181.538 30.6595H189.841L185.757 22.4317ZM185.974 13.6504L202.661 46.7532L198.076 47.9156L191.549 34.6986H179.456L172.764 47.9156L168.681 46.7532L185.974 13.6504ZM212.05 33.2967C210.709 33.2967 209.562 33.799 208.618 34.803C207.674 35.799 207.202 37.0125 207.202 38.4297C207.202 39.868 207.667 41.0738 208.603 42.0632C209.54 43.0521 210.694 43.5473 212.05 43.5473C213.399 43.5473 214.538 43.0521 215.467 42.0632C216.396 41.0738 216.861 39.868 216.861 38.4297C216.861 37.0125 216.396 35.799 215.467 34.803C214.538 33.799 213.399 33.2967 212.05 33.2967ZM221.184 14.2795V46.8822L216.771 47.2784V45.3002C216.096 46.0343 215.31 46.5894 214.411 46.9556C213.511 47.3306 212.522 47.5179 211.435 47.5179C209.008 47.5179 206.963 46.6335 205.291 44.8736C203.621 43.1119 202.789 40.9471 202.789 38.3845C202.789 35.8441 203.658 33.6782 205.389 31.8878C207.127 30.1044 209.225 29.2124 211.698 29.2124C212.725 29.2124 213.654 29.3774 214.477 29.7159C215.302 30.0516 216.066 30.5768 216.771 31.2733V14.7442L221.184 14.2795ZM235.915 32.5468L233.367 34.87C233.075 34.0983 232.678 33.5073 232.184 33.1024C231.681 32.704 231.097 32.5032 230.423 32.5032C229.988 32.5032 229.621 32.6382 229.336 32.907C229.052 33.177 228.909 33.5209 228.909 33.9258C228.909 34.6757 229.756 35.3642 231.457 35.9943C231.794 36.1064 232.056 36.2033 232.251 36.2784C233.577 36.773 234.551 37.4326 235.166 38.2566C235.78 39.0734 236.087 40.1079 236.087 41.352C236.087 43.0902 235.51 44.5356 234.357 45.6909C233.195 46.8364 231.727 47.4127 229.943 47.4127C228.857 47.4127 227.868 47.1957 226.976 46.7532C226.084 46.3195 225.335 45.6909 224.721 44.8654L227.201 41.8608C227.545 42.4599 227.98 42.9329 228.482 43.2774C228.984 43.6214 229.516 43.7944 230.071 43.7944C230.633 43.7944 231.105 43.6077 231.502 43.2317C231.899 42.8572 232.094 42.4164 232.094 41.906C232.094 41.3896 231.937 40.977 231.622 40.6619C231.307 40.3469 230.595 39.9948 229.478 39.5991C227.815 39.0136 226.631 38.3311 225.949 37.5675C225.26 36.7954 224.915 35.799 224.915 34.5701C224.915 33.0567 225.47 31.7675 226.587 30.6899C227.696 29.6173 229.029 29.0775 230.58 29.0775C231.689 29.0775 232.723 29.3855 233.675 29.9993C234.627 30.6143 235.368 31.4606 235.915 32.5468Z" fill="#95001E"/>
</svg>
