<svg width="247" height="81" viewBox="0 0 247 81" fill="none" xmlns="http://www.w3.org/2000/svg">
<g clip-path="url(#clip0_3036_34)">
<path fill-rule="evenodd" clip-rule="evenodd" d="M4.35363 0H242.322C244.717 0 246.676 1.95807 246.676 4.3542V54.9183C246.676 57.3123 244.717 59.2709 242.322 59.2709H4.35363C1.95858 59.2709 0 57.3123 0 54.9183V4.3542C0 1.95807 1.95858 0 4.35363 0Z" fill="#FFCB00"/>
<path fill-rule="evenodd" clip-rule="evenodd" d="M159.641 2.50391H238.742C241.137 2.50391 243.095 4.46248 243.095 6.85694V52.415C243.095 54.8089 241.137 56.7692 238.742 56.7692H159.641V2.50391Z" fill="white"/>
<path fill-rule="evenodd" clip-rule="evenodd" d="M29.4448 13.8273L30.2094 18.7279C29.4224 18.435 28.6132 18.2102 27.7811 18.06C26.9572 17.9028 26.1328 17.8282 25.3164 17.8282C21.8918 17.8282 19.0445 18.9449 16.7893 21.1773C14.5265 23.4112 13.3951 26.2052 13.3951 29.5694C13.3951 33.1297 14.601 36.0514 17.0064 38.3507C19.4119 40.6511 22.5137 41.7988 26.3052 41.7988C26.9049 41.7988 27.5264 41.7525 28.1707 41.6551C28.8157 41.5582 29.5046 41.4081 30.254 41.2062L29.2651 46.061C29.2053 46.0773 29.1226 46.0915 29.0028 46.099C27.8785 46.2487 27.0323 46.3238 26.4777 46.3238C21.0379 46.3238 16.6766 44.8033 13.4098 41.7602C10.1353 38.7115 8.5022 34.6643 8.5022 29.6141C8.5022 24.916 10.0455 21.0282 13.1328 17.948C16.2195 14.8678 20.1612 13.3244 24.9637 13.3244C25.4209 13.3244 25.8633 13.3322 26.2906 13.3543C26.7248 13.3772 27.1297 13.4148 27.5117 13.4593C27.774 13.4981 28.1936 13.5797 28.7629 13.6994C29.0703 13.7592 29.2951 13.8044 29.4448 13.8273ZM38.4889 13.1895V30.2736C39.1484 29.5547 39.8902 29.0073 40.707 28.6405C41.5233 28.2656 42.4 28.0783 43.3371 28.0783C45.053 28.0783 46.3265 28.6405 47.1732 29.7719C48.0124 30.8956 48.432 32.6039 48.432 34.9042V45.882L44.0636 46.2786V35.8485C44.0636 34.7171 43.8389 33.8551 43.397 33.2559C42.9475 32.6561 42.3027 32.3568 41.4488 32.3568C40.4893 32.3568 39.7476 32.686 39.2459 33.3527C38.7436 34.0205 38.4889 35.0093 38.4889 36.3056V45.882L34.1206 46.2786V13.6548L38.4889 13.1895ZM58.7195 37.8723C57.9332 37.8723 57.2736 38.1118 56.7567 38.5831C56.2396 39.0636 55.9774 39.6323 55.9774 40.3077C55.9774 40.996 56.232 41.5735 56.7414 42.0387C57.2584 42.5095 57.918 42.7424 58.7195 42.7424C59.5064 42.7424 60.1661 42.5095 60.6831 42.0387C61.2001 41.5735 61.4624 40.996 61.4624 40.3077C61.4624 39.6323 61.2001 39.0636 60.6755 38.5831C60.1432 38.1118 59.4918 37.8723 58.7195 37.8723ZM65.6358 34.4254V45.8368L61.6344 46.2786V44.5862C61.1402 45.1995 60.5481 45.6724 59.8586 45.994C59.1768 46.3173 58.3827 46.474 57.4908 46.474C55.85 46.474 54.4862 45.9037 53.3924 44.7647C52.2909 43.6186 51.744 42.1955 51.744 40.4791C51.744 38.6811 52.2985 37.2127 53.4 36.082C54.5014 34.95 55.9474 34.3797 57.7307 34.3797C58.54 34.3797 59.2519 34.5075 59.8814 34.7623C60.5105 35.0164 61.0352 35.3995 61.4624 35.8942V34.3345C61.4624 33.503 61.2376 32.9261 60.7805 32.6039C60.331 32.2817 59.4989 32.1169 58.3 32.1169C57.6181 32.1169 56.9215 32.1772 56.232 32.304C55.5354 32.4319 54.8383 32.6039 54.1341 32.844L55.1681 28.6704C56.1047 28.5354 56.9215 28.4456 57.6333 28.3852C58.3451 28.3254 58.9748 28.2955 59.5365 28.2955C61.7546 28.2955 63.3279 28.6998 64.2498 29.5167C65.1711 30.3259 65.6358 31.9672 65.6358 34.4254ZM84.4349 34.9042V45.882L80.0665 46.2786V35.8485C80.0665 34.7171 79.8418 33.8551 79.3998 33.2559C78.9503 32.6561 78.3055 32.3568 77.4516 32.3568C76.4922 32.3568 75.7504 32.686 75.2487 33.3527C74.7464 34.0205 74.4917 35.0093 74.4917 36.3056V45.882L70.1234 46.2786V28.7602L74.4917 28.2955V30.2736C75.1513 29.5547 75.893 29.016 76.7099 28.6405C77.5261 28.2656 78.4029 28.0783 79.34 28.0783C81.0559 28.0783 82.3293 28.6405 83.1761 29.7719C84.0152 30.8956 84.4349 32.6039 84.4349 34.9042ZM97.0527 32.2072C95.7118 32.2072 94.5652 32.7089 93.6209 33.713C92.6773 34.7094 92.2049 35.9241 92.2049 37.3396C92.2049 38.7779 92.6696 39.9844 93.6062 40.9737C94.5429 41.9631 95.6965 42.4572 97.0527 42.4572C98.4017 42.4572 99.5408 41.9631 100.47 40.9737C101.399 39.9844 101.863 38.7779 101.863 37.3396C101.863 35.9241 101.399 34.7094 100.47 33.713C99.5408 32.7089 98.4017 32.2072 97.0527 32.2072ZM106.186 13.1895V45.7916L101.774 46.1889V44.2112C101.099 44.9449 100.312 45.5 99.4134 45.8656C98.5139 46.2417 97.5251 46.4294 96.4383 46.4294C94.0106 46.4294 91.9655 45.5439 90.2942 43.7835C88.6235 42.0224 87.7914 39.857 87.7914 37.295C87.7914 34.7557 88.6611 32.5892 90.3916 30.7987C92.1298 29.016 94.2283 28.1241 96.7006 28.1241C97.7276 28.1241 98.6564 28.2884 99.4804 28.6253C100.305 28.9632 101.069 29.4867 101.774 30.1844V13.6548L106.186 13.1895ZM119.891 28.4304V32.7089C118.093 32.7388 116.857 33.0763 116.182 33.72C115.508 34.365 115.171 35.572 115.171 37.3396V45.882L110.802 46.2786V28.7602L115.171 28.2955V30.5593C115.725 29.8388 116.392 29.3076 117.171 28.9555C117.943 28.6024 118.85 28.4304 119.891 28.4304ZM128.111 37.8723C127.324 37.8723 126.665 38.1118 126.148 38.5831C125.631 39.0636 125.369 39.6323 125.369 40.3077C125.369 40.996 125.623 41.5735 126.133 42.0387C126.65 42.5095 127.309 42.7424 128.111 42.7424C128.898 42.7424 129.557 42.5095 130.074 42.0387C130.591 41.5735 130.854 40.996 130.854 40.3077C130.854 39.6323 130.591 39.0636 130.067 38.5831C129.534 38.1118 128.883 37.8723 128.111 37.8723ZM135.027 34.4254V45.8368L131.026 46.2786V44.5862C130.531 45.1995 129.939 45.6724 129.25 45.994C128.568 46.3173 127.774 46.474 126.882 46.474C125.241 46.474 123.877 45.9037 122.784 44.7647C121.682 43.6186 121.135 42.1955 121.135 40.4791C121.135 38.6811 121.69 37.2127 122.791 36.082C123.893 34.95 125.339 34.3797 127.122 34.3797C127.931 34.3797 128.643 34.5075 129.273 34.7623C129.902 35.0164 130.426 35.3995 130.854 35.8942V34.3345C130.854 33.503 130.629 32.9261 130.172 32.6039C129.722 32.2817 128.89 32.1169 127.691 32.1169C127.009 32.1169 126.313 32.1772 125.623 32.304C124.927 32.4319 124.23 32.6039 123.525 32.844L124.559 28.6704C125.496 28.5354 126.313 28.4456 127.025 28.3852C127.736 28.3254 128.366 28.2955 128.928 28.2955C131.146 28.2955 132.719 28.6998 133.641 29.5167C134.562 30.3259 135.027 31.9672 135.027 34.4254ZM145.367 37.8723C144.581 37.8723 143.921 38.1118 143.404 38.5831C142.887 39.0636 142.625 39.6323 142.625 40.3077C142.625 40.996 142.879 41.5735 143.389 42.0387C143.906 42.5095 144.565 42.7424 145.367 42.7424C146.154 42.7424 146.813 42.5095 147.33 42.0387C147.847 41.5735 148.11 40.996 148.11 40.3077C148.11 39.6323 147.847 39.0636 147.323 38.5831C146.791 38.1118 146.139 37.8723 145.367 37.8723ZM152.283 34.4254V45.8368L148.282 46.2786V44.5862C147.788 45.1995 147.195 45.6724 146.506 45.994C145.824 46.3173 145.03 46.474 144.138 46.474C142.497 46.474 141.134 45.9037 140.04 44.7647C138.938 43.6186 138.391 42.1955 138.391 40.4791C138.391 38.6811 138.946 37.2127 140.047 36.082C141.149 34.95 142.595 34.3797 144.378 34.3797C145.187 34.3797 145.899 34.5075 146.529 34.7623C147.158 35.0164 147.683 35.3995 148.11 35.8942V34.3345C148.11 33.503 147.885 32.9261 147.428 32.6039C146.978 32.2817 146.146 32.1169 144.947 32.1169C144.265 32.1169 143.569 32.1772 142.879 32.304C142.183 32.4319 141.486 32.6039 140.781 32.844L141.815 28.6704C142.752 28.5354 143.569 28.4456 144.281 28.3852C144.993 28.3254 145.622 28.2955 146.184 28.2955C148.402 28.2955 149.975 28.6998 150.897 29.5167C151.818 30.3259 152.283 31.9672 152.283 34.4254Z" fill="#95001E"/>
<path fill-rule="evenodd" clip-rule="evenodd" d="M185.757 22.4317L181.538 30.6595H189.841L185.757 22.4317ZM185.974 13.6504L202.661 46.7532L198.076 47.9156L191.549 34.6986H179.456L172.764 47.9156L168.681 46.7532L185.974 13.6504ZM212.05 33.2967C210.709 33.2967 209.562 33.799 208.618 34.803C207.674 35.799 207.202 37.0125 207.202 38.4297C207.202 39.868 207.667 41.0738 208.603 42.0632C209.54 43.0521 210.694 43.5473 212.05 43.5473C213.399 43.5473 214.538 43.0521 215.467 42.0632C216.396 41.0738 216.861 39.868 216.861 38.4297C216.861 37.0125 216.396 35.799 215.467 34.803C214.538 33.799 213.399 33.2967 212.05 33.2967ZM221.184 14.2795V46.8822L216.771 47.2784V45.3002C216.096 46.0343 215.31 46.5894 214.411 46.9556C213.511 47.3306 212.522 47.5179 211.435 47.5179C209.008 47.5179 206.963 46.6335 205.291 44.8736C203.621 43.1119 202.789 40.9471 202.789 38.3845C202.789 35.8441 203.658 33.6782 205.389 31.8878C207.127 30.1044 209.225 29.2124 211.698 29.2124C212.725 29.2124 213.654 29.3774 214.477 29.7159C215.302 30.0516 216.066 30.5768 216.771 31.2733V14.7442L221.184 14.2795ZM235.915 32.5468L233.367 34.87C233.075 34.0983 232.678 33.5073 232.184 33.1024C231.681 32.704 231.097 32.5032 230.423 32.5032C229.988 32.5032 229.621 32.6382 229.336 32.907C229.052 33.177 228.909 33.5209 228.909 33.9258C228.909 34.6757 229.756 35.3642 231.457 35.9943C231.794 36.1064 232.056 36.2033 232.251 36.2784C233.577 36.773 234.551 37.4326 235.166 38.2566C235.78 39.0734 236.087 40.1079 236.087 41.352C236.087 43.0902 235.51 44.5356 234.357 45.6909C233.195 46.8364 231.727 47.4127 229.943 47.4127C228.857 47.4127 227.868 47.1957 226.976 46.7532C226.084 46.3195 225.335 45.6909 224.721 44.8654L227.201 41.8608C227.545 42.4599 227.98 42.9329 228.482 43.2774C228.984 43.6214 229.516 43.7944 230.071 43.7944C230.633 43.7944 231.105 43.6077 231.502 43.2317C231.899 42.8572 232.094 42.4164 232.094 41.906C232.094 41.3896 231.937 40.977 231.622 40.6619C231.307 40.3469 230.595 39.9948 229.478 39.5991C227.815 39.0136 226.631 38.3311 225.949 37.5675C225.26 36.7954 224.915 35.799 224.915 34.5701C224.915 33.0567 225.47 31.7675 226.587 30.6899C227.696 29.6173 229.029 29.0775 230.58 29.0775C231.689 29.0775 232.723 29.3855 233.675 29.9993C234.627 30.6143 235.368 31.4606 235.915 32.5468Z" fill="#95001E"/>
</g>
<path d="M17.2773 74.3116V73.3218H21.9407V74.3116H20.2023V79H19.0157V74.3116H17.2773ZM25.1643 79.0832C24.7336 79.0832 24.3611 78.9917 24.0469 78.8087C23.7345 78.6239 23.4933 78.3669 23.3233 78.0379C23.1532 77.7071 23.0682 77.3235 23.0682 76.8873C23.0682 76.4474 23.1532 76.0629 23.3233 75.7339C23.4933 75.403 23.7345 75.1461 24.0469 74.9631C24.3611 74.7783 24.7336 74.6859 25.1643 74.6859C25.5949 74.6859 25.9665 74.7783 26.2788 74.9631C26.5931 75.1461 26.8352 75.403 27.0053 75.7339C27.1753 76.0629 27.2603 76.4474 27.2603 76.8873C27.2603 77.3235 27.1753 77.7071 27.0053 78.0379C26.8352 78.3669 26.5931 78.6239 26.2788 78.8087C25.9665 78.9917 25.5949 79.0832 25.1643 79.0832ZM25.1698 78.1682C25.3657 78.1682 25.5293 78.1128 25.6606 78.0019C25.7918 77.8891 25.8907 77.7357 25.9572 77.5416C26.0256 77.3475 26.0598 77.1267 26.0598 76.879C26.0598 76.6313 26.0256 76.4104 25.9572 76.2163C25.8907 76.0223 25.7918 75.8688 25.6606 75.7561C25.5293 75.6433 25.3657 75.587 25.1698 75.587C24.972 75.587 24.8057 75.6433 24.6707 75.7561C24.5377 75.8688 24.4369 76.0223 24.3685 76.2163C24.302 76.4104 24.2687 76.6313 24.2687 76.879C24.2687 77.1267 24.302 77.3475 24.3685 77.5416C24.4369 77.7357 24.5377 77.8891 24.6707 78.0019C24.8057 78.1128 24.972 78.1682 25.1698 78.1682ZM33.392 79.0804C33.1203 79.0804 32.8782 79.0333 32.6656 78.939C32.453 78.8429 32.2848 78.7015 32.161 78.5148C32.039 78.3263 31.978 78.0915 31.978 77.8106C31.978 77.574 32.0215 77.3753 32.1083 77.2145C32.1952 77.0537 32.3135 76.9243 32.4632 76.8263C32.6129 76.7283 32.783 76.6544 32.9734 76.6045C33.1656 76.5546 33.3671 76.5195 33.5778 76.4991C33.8255 76.4733 34.0251 76.4492 34.1767 76.427C34.3282 76.403 34.4382 76.3679 34.5066 76.3217C34.575 76.2755 34.6092 76.2071 34.6092 76.1165V76.0999C34.6092 75.9243 34.5537 75.7884 34.4428 75.6923C34.3338 75.5962 34.1785 75.5481 33.977 75.5481C33.7645 75.5481 33.5953 75.5953 33.4697 75.6895C33.344 75.782 33.2608 75.8984 33.2201 76.0389L32.1277 75.9502C32.1832 75.6914 32.2922 75.4677 32.4549 75.2792C32.6176 75.0888 32.8273 74.9428 33.0843 74.8411C33.343 74.7376 33.6425 74.6859 33.9826 74.6859C34.2192 74.6859 34.4456 74.7136 34.6619 74.769C34.88 74.8245 35.0731 74.9104 35.2413 75.0269C35.4114 75.1433 35.5454 75.2931 35.6434 75.4761C35.7413 75.6572 35.7903 75.8744 35.7903 76.1276V79H34.6702V78.4094H34.6369C34.5685 78.5425 34.477 78.6599 34.3624 78.7616C34.2478 78.8614 34.1101 78.9399 33.9493 78.9972C33.7885 79.0527 33.6027 79.0804 33.392 79.0804ZM33.7303 78.2653C33.904 78.2653 34.0574 78.2311 34.1905 78.1627C34.3236 78.0924 34.428 77.9982 34.5038 77.8799C34.5796 77.7616 34.6175 77.6276 34.6175 77.4779V77.0259C34.5805 77.05 34.5297 77.0721 34.465 77.0925C34.4022 77.111 34.331 77.1285 34.2515 77.1451C34.172 77.1599 34.0926 77.1738 34.0131 77.1867C33.9336 77.1978 33.8615 77.208 33.7968 77.2172C33.6582 77.2376 33.5371 77.2699 33.4336 77.3143C33.3301 77.3586 33.2497 77.4187 33.1924 77.4945C33.1351 77.5684 33.1065 77.6608 33.1065 77.7717C33.1065 77.9326 33.1647 78.0555 33.2811 78.1405C33.3994 78.2237 33.5491 78.2653 33.7303 78.2653ZM39.4471 79.0693C39.1236 79.0693 38.8306 78.9861 38.5682 78.8198C38.3075 78.6516 38.1005 78.4048 37.9471 78.0795C37.7955 77.7523 37.7197 77.3512 37.7197 76.8762C37.7197 76.3882 37.7983 75.9825 37.9554 75.659C38.1125 75.3337 38.3214 75.0907 38.582 74.9299C38.8445 74.7672 39.1319 74.6859 39.4443 74.6859C39.6827 74.6859 39.8814 74.7265 40.0404 74.8079C40.2012 74.8873 40.3306 74.9872 40.4285 75.1073C40.5284 75.2256 40.6041 75.342 40.6559 75.4566H40.6919V73.3218H41.8703V79H40.7058V78.3179H40.6559C40.6004 78.4362 40.5219 78.5536 40.4202 78.6701C40.3204 78.7847 40.1901 78.8799 40.0293 78.9556C39.8703 79.0314 39.6763 79.0693 39.4471 79.0693ZM39.8214 78.1294C40.0117 78.1294 40.1725 78.0777 40.3038 77.9741C40.4369 77.8688 40.5385 77.7218 40.6088 77.5333C40.6809 77.3448 40.7169 77.1239 40.7169 76.8707C40.7169 76.6174 40.6818 76.3975 40.6115 76.2108C40.5413 76.0241 40.4396 75.8799 40.3066 75.7783C40.1735 75.6766 40.0117 75.6258 39.8214 75.6258C39.6273 75.6258 39.4637 75.6785 39.3306 75.7838C39.1975 75.8892 39.0968 76.0352 39.0284 76.2219C38.96 76.4086 38.9258 76.6248 38.9258 76.8707C38.9258 77.1183 38.96 77.3374 39.0284 77.5278C39.0986 77.7163 39.1994 77.8642 39.3306 77.9714C39.4637 78.0767 39.6273 78.1294 39.8214 78.1294ZM47.9829 74.7413L46.494 79H45.1631L43.6743 74.7413H44.9219L45.8064 77.7884H45.8507L46.7324 74.7413H47.9829ZM51.562 79.0832C51.1239 79.0832 50.7468 78.9945 50.4308 78.817C50.1165 78.6377 49.8744 78.3845 49.7043 78.0573C49.5343 77.7283 49.4493 77.3392 49.4493 76.8901C49.4493 76.452 49.5343 76.0675 49.7043 75.7367C49.8744 75.4058 50.1138 75.148 50.4224 74.9631C50.733 74.7783 51.0971 74.6859 51.5148 74.6859C51.7958 74.6859 52.0573 74.7312 52.2995 74.8217C52.5435 74.9104 52.756 75.0445 52.9372 75.2238C53.1202 75.403 53.2625 75.6285 53.3641 75.9003C53.4658 76.1701 53.5166 76.4862 53.5166 76.8485V77.1729H49.9206V76.4409H52.4048C52.4048 76.2709 52.3679 76.1202 52.2939 75.989C52.22 75.8577 52.1174 75.7552 51.9862 75.6812C51.8568 75.6054 51.7061 75.5675 51.5342 75.5675C51.355 75.5675 51.196 75.6091 51.0574 75.6923C50.9206 75.7736 50.8134 75.8836 50.7357 76.0223C50.6581 76.159 50.6184 76.3115 50.6165 76.4797V77.1756C50.6165 77.3864 50.6553 77.5684 50.733 77.7218C50.8125 77.8753 50.9243 77.9936 51.0685 78.0767C51.2126 78.1599 51.3836 78.2015 51.5814 78.2015C51.7126 78.2015 51.8328 78.183 51.9418 78.146C52.0509 78.1091 52.1442 78.0536 52.2218 77.9797C52.2995 77.9058 52.3586 77.8152 52.3993 77.708L53.4917 77.7801C53.4362 78.0425 53.3226 78.2717 53.1507 78.4677C52.9806 78.6617 52.7606 78.8133 52.4908 78.9224C52.2228 79.0296 51.9132 79.0832 51.562 79.0832ZM55.4586 79V74.7413H56.6036V75.4844H56.648C56.7256 75.2201 56.8559 75.0204 57.0389 74.8855C57.2219 74.7487 57.4326 74.6803 57.6711 74.6803C57.7302 74.6803 57.794 74.684 57.8624 74.6914C57.9308 74.6988 57.9908 74.709 58.0426 74.7219V75.7699C57.9871 75.7533 57.9104 75.7385 57.8125 75.7256C57.7145 75.7126 57.6249 75.7062 57.5435 75.7062C57.3698 75.7062 57.2145 75.7441 57.0777 75.8199C56.9428 75.8938 56.8356 75.9973 56.7561 76.1304C56.6785 76.2635 56.6397 76.4169 56.6397 76.5906V79H55.4586ZM62.3031 74.7413V75.6285H59.7384V74.7413H62.3031ZM60.3207 73.721H61.5018V77.6913C61.5018 77.8004 61.5184 77.8854 61.5517 77.9464C61.585 78.0056 61.6312 78.0472 61.6903 78.0712C61.7513 78.0952 61.8216 78.1072 61.901 78.1072C61.9565 78.1072 62.012 78.1026 62.0674 78.0934C62.1229 78.0823 62.1654 78.074 62.1949 78.0684L62.3807 78.9473C62.3216 78.9658 62.2384 78.9871 62.1312 79.0111C62.024 79.037 61.8937 79.0527 61.7402 79.0582C61.4556 79.0693 61.2061 79.0314 60.9916 78.9445C60.7791 78.8577 60.6136 78.7227 60.4954 78.5398C60.3771 78.3568 60.3188 78.1257 60.3207 77.8466V73.721ZM64.2436 79V74.7413H65.4247V79H64.2436ZM64.8369 74.1924C64.6613 74.1924 64.5107 74.1341 64.385 74.0177C64.2612 73.8994 64.1992 73.758 64.1992 73.5935C64.1992 73.4308 64.2612 73.2913 64.385 73.1748C64.5107 73.0565 64.6613 72.9974 64.8369 72.9974C65.0125 72.9974 65.1622 73.0565 65.2861 73.1748C65.4118 73.2913 65.4746 73.4308 65.4746 73.5935C65.4746 73.758 65.4118 73.8994 65.2861 74.0177C65.1622 74.1341 65.0125 74.1924 64.8369 74.1924ZM71.0853 75.9557L70.004 76.0223C69.9856 75.9298 69.9458 75.8467 69.8848 75.7727C69.8238 75.6969 69.7434 75.6369 69.6436 75.5925C69.5456 75.5463 69.4283 75.5232 69.2915 75.5232C69.1085 75.5232 68.9542 75.562 68.8285 75.6396C68.7028 75.7154 68.6399 75.8171 68.6399 75.9446C68.6399 76.0463 68.6806 76.1322 68.7619 76.2025C68.8433 76.2727 68.9828 76.3291 69.1806 76.3716L69.9514 76.5269C70.3654 76.6119 70.6741 76.7487 70.8774 76.9372C71.0807 77.1257 71.1824 77.3734 71.1824 77.6803C71.1824 77.9594 71.1001 78.2043 70.9356 78.415C70.773 78.6257 70.5493 78.7902 70.2647 78.9085C69.9819 79.025 69.6556 79.0832 69.2859 79.0832C68.7222 79.0832 68.273 78.9658 67.9385 78.7311C67.6058 78.4945 67.4108 78.1728 67.3535 77.7662L68.5152 77.7052C68.5503 77.8771 68.6353 78.0083 68.7702 78.0989C68.9052 78.1876 69.078 78.232 69.2887 78.232C69.4957 78.232 69.6621 78.1923 69.7878 78.1128C69.9153 78.0314 69.98 77.927 69.9819 77.7995C69.98 77.6923 69.9347 77.6045 69.846 77.5361C69.7573 77.4658 69.6205 77.4122 69.4357 77.3753L68.6982 77.2283C68.2823 77.1451 67.9727 77.001 67.7693 76.7958C67.5679 76.5906 67.4671 76.3291 67.4671 76.0112C67.4671 75.7376 67.5411 75.5019 67.6889 75.3042C67.8387 75.1064 68.0485 74.9539 68.3183 74.8467C68.59 74.7395 68.908 74.6859 69.2721 74.6859C69.81 74.6859 70.2332 74.7995 70.5419 75.0269C70.8525 75.2542 71.0336 75.5639 71.0853 75.9557ZM75.0381 79.0832C74.6 79.0832 74.2229 78.9945 73.9069 78.817C73.5926 78.6377 73.3505 78.3845 73.1804 78.0573C73.0104 77.7283 72.9254 77.3392 72.9254 76.8901C72.9254 76.452 73.0104 76.0675 73.1804 75.7367C73.3505 75.4058 73.5899 75.148 73.8985 74.9631C74.2091 74.7783 74.5732 74.6859 74.9909 74.6859C75.2719 74.6859 75.5334 74.7312 75.7756 74.8217C76.0196 74.9104 76.2321 75.0445 76.4133 75.2238C76.5963 75.403 76.7386 75.6285 76.8402 75.9003C76.9419 76.1701 76.9927 76.4862 76.9927 76.8485V77.1729H73.3967V76.4409H75.8809C75.8809 76.2709 75.844 76.1202 75.77 75.989C75.6961 75.8577 75.5935 75.7552 75.4623 75.6812C75.3329 75.6054 75.1822 75.5675 75.0103 75.5675C74.8311 75.5675 74.6721 75.6091 74.5335 75.6923C74.3967 75.7736 74.2895 75.8836 74.2118 76.0223C74.1342 76.159 74.0945 76.3115 74.0926 76.4797V77.1756C74.0926 77.3864 74.1314 77.5684 74.2091 77.7218C74.2886 77.8753 74.4004 77.9936 74.5446 78.0767C74.6887 78.1599 74.8597 78.2015 75.0575 78.2015C75.1887 78.2015 75.3089 78.183 75.4179 78.146C75.527 78.1091 75.6203 78.0536 75.6979 77.9797C75.7756 77.9058 75.8347 77.8152 75.8754 77.708L76.9678 77.7801C76.9123 78.0425 76.7987 78.2717 76.6268 78.4677C76.4567 78.6617 76.2367 78.8133 75.9669 78.9224C75.6989 79.0296 75.3893 79.0832 75.0381 79.0832ZM81.9128 79V74.7413H83.0939V79H81.9128ZM82.5061 74.1924C82.3305 74.1924 82.1799 74.1341 82.0542 74.0177C81.9304 73.8994 81.8685 73.758 81.8685 73.5935C81.8685 73.4308 81.9304 73.2913 82.0542 73.1748C82.1799 73.0565 82.3305 72.9974 82.5061 72.9974C82.6817 72.9974 82.8315 73.0565 82.9553 73.1748C83.081 73.2913 83.1438 73.4308 83.1438 73.5935C83.1438 73.758 83.081 73.8994 82.9553 74.0177C82.8315 74.1341 82.6817 74.1924 82.5061 74.1924ZM86.3923 76.538V79H85.2112V74.7413H86.3369V75.4927H86.3868C86.481 75.245 86.6391 75.0491 86.8609 74.9049C87.0827 74.7589 87.3516 74.6859 87.6677 74.6859C87.9635 74.6859 88.2213 74.7506 88.4413 74.88C88.6612 75.0093 88.8322 75.1942 88.9542 75.4345C89.0762 75.6729 89.1372 75.9576 89.1372 76.2884V79H87.9561V76.4991C87.9579 76.2385 87.8914 76.0352 87.7564 75.8892C87.6215 75.7413 87.4357 75.6674 87.1991 75.6674C87.0402 75.6674 86.8997 75.7016 86.7777 75.7699C86.6576 75.8383 86.5633 75.9382 86.4949 76.0694C86.4284 76.1988 86.3942 76.355 86.3923 76.538ZM95.4318 79.0804C95.16 79.0804 94.9179 79.0333 94.7053 78.939C94.4928 78.8429 94.3246 78.7015 94.2007 78.5148C94.0787 78.3263 94.0177 78.0915 94.0177 77.8106C94.0177 77.574 94.0612 77.3753 94.1481 77.2145C94.2349 77.0537 94.3532 76.9243 94.5029 76.8263C94.6527 76.7283 94.8227 76.6544 95.0131 76.6045C95.2053 76.5546 95.4068 76.5195 95.6175 76.4991C95.8652 76.4733 96.0648 76.4492 96.2164 76.427C96.368 76.403 96.4779 76.3679 96.5463 76.3217C96.6147 76.2755 96.6489 76.2071 96.6489 76.1165V76.0999C96.6489 75.9243 96.5935 75.7884 96.4826 75.6923C96.3735 75.5962 96.2182 75.5481 96.0168 75.5481C95.8042 75.5481 95.6351 75.5953 95.5094 75.6895C95.3837 75.782 95.3005 75.8984 95.2599 76.0389L94.1675 75.9502C94.2229 75.6914 94.332 75.4677 94.4946 75.2792C94.6573 75.0888 94.8671 74.9428 95.124 74.8411C95.3828 74.7376 95.6822 74.6859 96.0223 74.6859C96.2589 74.6859 96.4853 74.7136 96.7016 74.769C96.9197 74.8245 97.1129 74.9104 97.2811 75.0269C97.4511 75.1433 97.5851 75.2931 97.6831 75.4761C97.7811 75.6572 97.83 75.8744 97.83 76.1276V79H96.7099V78.4094H96.6766C96.6083 78.5425 96.5168 78.6599 96.4022 78.7616C96.2876 78.8614 96.1499 78.9399 95.989 78.9972C95.8282 79.0527 95.6425 79.0804 95.4318 79.0804ZM95.77 78.2653C95.9438 78.2653 96.0972 78.2311 96.2303 78.1627C96.3633 78.0924 96.4678 77.9982 96.5436 77.8799C96.6193 77.7616 96.6572 77.6276 96.6572 77.4779V77.0259C96.6203 77.05 96.5694 77.0721 96.5047 77.0925C96.4419 77.111 96.3707 77.1285 96.2913 77.1451C96.2118 77.1599 96.1323 77.1738 96.0528 77.1867C95.9733 77.1978 95.9012 77.208 95.8366 77.2172C95.6979 77.2376 95.5769 77.2699 95.4733 77.3143C95.3698 77.3586 95.2894 77.4187 95.2321 77.4945C95.1748 77.5684 95.1462 77.6608 95.1462 77.7717C95.1462 77.9326 95.2044 78.0555 95.3209 78.1405C95.4392 78.2237 95.5889 78.2653 95.77 78.2653ZM101.099 73.3218V79H99.9175V73.3218H101.099ZM104.397 73.3218V79H103.216V73.3218H104.397ZM110.674 76.538V79H109.492V74.7413H110.618V75.4927H110.668C110.762 75.245 110.92 75.0491 111.142 74.9049C111.364 74.7589 111.633 74.6859 111.949 74.6859C112.245 74.6859 112.503 74.7506 112.723 74.88C112.942 75.0093 113.113 75.1942 113.235 75.4345C113.357 75.6729 113.418 75.9576 113.418 76.2884V79H112.237V76.4991C112.239 76.2385 112.173 76.0352 112.038 75.8892C111.903 75.7413 111.717 75.6674 111.48 75.6674C111.321 75.6674 111.181 75.7016 111.059 75.7699C110.939 75.8383 110.845 75.9382 110.776 76.0694C110.71 76.1988 110.675 76.355 110.674 76.538ZM117.461 79.0832C117.023 79.0832 116.646 78.9945 116.33 78.817C116.016 78.6377 115.774 78.3845 115.604 78.0573C115.434 77.7283 115.349 77.3392 115.349 76.8901C115.349 76.452 115.434 76.0675 115.604 75.7367C115.774 75.4058 116.013 75.148 116.322 74.9631C116.632 74.7783 116.996 74.6859 117.414 74.6859C117.695 74.6859 117.957 74.7312 118.199 74.8217C118.443 74.9104 118.655 75.0445 118.836 75.2238C119.019 75.403 119.162 75.6285 119.263 75.9003C119.365 76.1701 119.416 76.4862 119.416 76.8485V77.1729H115.82V76.4409H118.304C118.304 76.2709 118.267 76.1202 118.193 75.989C118.119 75.8577 118.017 75.7552 117.885 75.6812C117.756 75.6054 117.605 75.5675 117.434 75.5675C117.254 75.5675 117.095 75.6091 116.957 75.6923C116.82 75.7736 116.713 75.8836 116.635 76.0223C116.557 76.159 116.518 76.3115 116.516 76.4797V77.1756C116.516 77.3864 116.555 77.5684 116.632 77.7218C116.712 77.8753 116.824 77.9936 116.968 78.0767C117.112 78.1599 117.283 78.2015 117.481 78.2015C117.612 78.2015 117.732 78.183 117.841 78.146C117.95 78.1091 118.044 78.0536 118.121 77.9797C118.199 77.9058 118.258 77.8152 118.299 77.708L119.391 77.7801C119.336 78.0425 119.222 78.2717 119.05 78.4677C118.88 78.6617 118.66 78.8133 118.39 78.9224C118.122 79.0296 117.812 79.0832 117.461 79.0832ZM122.167 79L121.009 74.7413H122.203L122.863 77.6026H122.902L123.59 74.7413H124.763L125.461 77.586H125.497L126.146 74.7413H127.338L126.182 79H124.932L124.2 76.3217H124.147L123.415 79H122.167ZM132.683 75.9557L131.602 76.0223C131.583 75.9298 131.543 75.8467 131.482 75.7727C131.421 75.6969 131.341 75.6369 131.241 75.5925C131.143 75.5463 131.026 75.5232 130.889 75.5232C130.706 75.5232 130.552 75.562 130.426 75.6396C130.3 75.7154 130.237 75.8171 130.237 75.9446C130.237 76.0463 130.278 76.1322 130.359 76.2025C130.441 76.2727 130.58 76.3291 130.778 76.3716L131.549 76.5269C131.963 76.6119 132.272 76.7487 132.475 76.9372C132.678 77.1257 132.78 77.3734 132.78 77.6803C132.78 77.9594 132.698 78.2043 132.533 78.415C132.37 78.6257 132.147 78.7902 131.862 78.9085C131.579 79.025 131.253 79.0832 130.883 79.0832C130.32 79.0832 129.871 78.9658 129.536 78.7311C129.203 78.4945 129.008 78.1728 128.951 77.7662L130.113 77.7052C130.148 77.8771 130.233 78.0083 130.368 78.0989C130.503 78.1876 130.676 78.232 130.886 78.232C131.093 78.232 131.26 78.1923 131.385 78.1128C131.513 78.0314 131.578 77.927 131.579 77.7995C131.578 77.6923 131.532 77.6045 131.444 77.5361C131.355 77.4658 131.218 77.4122 131.033 77.3753L130.296 77.2283C129.88 77.1451 129.57 77.001 129.367 76.7958C129.165 76.5906 129.065 76.3291 129.065 76.0112C129.065 75.7376 129.139 75.5019 129.286 75.3042C129.436 75.1064 129.646 74.9539 129.916 74.8467C130.188 74.7395 130.505 74.6859 130.87 74.6859C131.407 74.6859 131.831 74.7995 132.139 75.0269C132.45 75.2542 132.631 75.5639 132.683 75.9557ZM137.673 80.597V74.7413H138.837V75.4566H138.89C138.942 75.342 139.017 75.2256 139.115 75.1073C139.214 74.9872 139.344 74.8873 139.503 74.8079C139.664 74.7265 139.863 74.6859 140.102 74.6859C140.412 74.6859 140.699 74.7672 140.961 74.9299C141.224 75.0907 141.433 75.3337 141.591 75.659C141.748 75.9825 141.826 76.3882 141.826 76.8762C141.826 77.3512 141.75 77.7523 141.596 78.0795C141.445 78.4048 141.238 78.6516 140.975 78.8198C140.714 78.9861 140.422 79.0693 140.099 79.0693C139.87 79.0693 139.675 79.0314 139.514 78.9556C139.355 78.8799 139.225 78.7847 139.123 78.6701C139.021 78.5536 138.944 78.4362 138.89 78.3179H138.854V80.597H137.673ZM138.829 76.8707C138.829 77.1239 138.864 77.3448 138.934 77.5333C139.005 77.7218 139.106 77.8688 139.239 77.9741C139.373 78.0777 139.534 78.1294 139.725 78.1294C139.917 78.1294 140.08 78.0767 140.213 77.9714C140.346 77.8642 140.446 77.7163 140.515 77.5278C140.585 77.3374 140.62 77.1183 140.62 76.8707C140.62 76.6248 140.586 76.4086 140.518 76.2219C140.449 76.0352 140.348 75.8892 140.215 75.7838C140.082 75.6785 139.919 75.6258 139.725 75.6258C139.532 75.6258 139.37 75.6766 139.237 75.7783C139.105 75.8799 139.005 76.0241 138.934 76.2108C138.864 76.3975 138.829 76.6174 138.829 76.8707ZM144.999 79.0804C144.727 79.0804 144.485 79.0333 144.273 78.939C144.06 78.8429 143.892 78.7015 143.768 78.5148C143.646 78.3263 143.585 78.0915 143.585 77.8106C143.585 77.574 143.629 77.3753 143.715 77.2145C143.802 77.0537 143.921 76.9243 144.07 76.8263C144.22 76.7283 144.39 76.6544 144.581 76.6045C144.773 76.5546 144.974 76.5195 145.185 76.4991C145.433 76.4733 145.632 76.4492 145.784 76.427C145.935 76.403 146.045 76.3679 146.114 76.3217C146.182 76.2755 146.216 76.2071 146.216 76.1165V76.0999C146.216 75.9243 146.161 75.7884 146.05 75.6923C145.941 75.5962 145.786 75.5481 145.584 75.5481C145.372 75.5481 145.203 75.5953 145.077 75.6895C144.951 75.782 144.868 75.8984 144.827 76.0389L143.735 75.9502C143.79 75.6914 143.899 75.4677 144.062 75.2792C144.225 75.0888 144.435 74.9428 144.691 74.8411C144.95 74.7376 145.25 74.6859 145.59 74.6859C145.826 74.6859 146.053 74.7136 146.269 74.769C146.487 74.8245 146.68 74.9104 146.849 75.0269C147.019 75.1433 147.153 75.2931 147.251 75.4761C147.348 75.6572 147.397 75.8744 147.397 76.1276V79H146.277V78.4094H146.244C146.176 78.5425 146.084 78.6599 145.97 78.7616C145.855 78.8614 145.717 78.9399 145.556 78.9972C145.396 79.0527 145.21 79.0804 144.999 79.0804ZM145.337 78.2653C145.511 78.2653 145.665 78.2311 145.798 78.1627C145.931 78.0924 146.035 77.9982 146.111 77.8799C146.187 77.7616 146.225 77.6276 146.225 77.4779V77.0259C146.188 77.05 146.137 77.0721 146.072 77.0925C146.009 77.111 145.938 77.1285 145.859 77.1451C145.779 77.1599 145.7 77.1738 145.62 77.1867C145.541 77.1978 145.469 77.208 145.404 77.2172C145.265 77.2376 145.144 77.2699 145.041 77.3143C144.937 77.3586 144.857 77.4187 144.8 77.4945C144.742 77.5684 144.714 77.6608 144.714 77.7717C144.714 77.9326 144.772 78.0555 144.888 78.1405C145.007 78.2237 145.156 78.2653 145.337 78.2653ZM149.485 80.597V74.7413H150.649V75.4566H150.702C150.754 75.342 150.829 75.2256 150.927 75.1073C151.027 74.9872 151.156 74.8873 151.315 74.8079C151.476 74.7265 151.675 74.6859 151.914 74.6859C152.224 74.6859 152.511 74.7672 152.773 74.9299C153.036 75.0907 153.245 75.3337 153.403 75.659C153.56 75.9825 153.638 76.3882 153.638 76.8762C153.638 77.3512 153.562 77.7523 153.408 78.0795C153.257 78.4048 153.05 78.6516 152.787 78.8198C152.526 78.9861 152.234 79.0693 151.911 79.0693C151.682 79.0693 151.487 79.0314 151.326 78.9556C151.167 78.8799 151.037 78.7847 150.935 78.6701C150.833 78.5536 150.756 78.4362 150.702 78.3179H150.666V80.597H149.485ZM150.641 76.8707C150.641 77.1239 150.676 77.3448 150.746 77.5333C150.817 77.7218 150.918 77.8688 151.051 77.9741C151.185 78.0777 151.346 78.1294 151.537 78.1294C151.729 78.1294 151.892 78.0767 152.025 77.9714C152.158 77.8642 152.258 77.7163 152.327 77.5278C152.397 77.3374 152.432 77.1183 152.432 76.8707C152.432 76.6248 152.398 76.4086 152.33 76.2219C152.261 76.0352 152.16 75.8892 152.027 75.7838C151.894 75.6785 151.731 75.6258 151.537 75.6258C151.344 75.6258 151.182 75.6766 151.049 75.7783C150.917 75.8799 150.817 76.0241 150.746 76.2108C150.676 76.3975 150.641 76.6174 150.641 76.8707ZM157.538 79.0832C157.1 79.0832 156.722 78.9945 156.406 78.817C156.092 78.6377 155.85 78.3845 155.68 78.0573C155.51 77.7283 155.425 77.3392 155.425 76.8901C155.425 76.452 155.51 76.0675 155.68 75.7367C155.85 75.4058 156.089 75.148 156.398 74.9631C156.709 74.7783 157.073 74.6859 157.49 74.6859C157.771 74.6859 158.033 74.7312 158.275 74.8217C158.519 74.9104 158.732 75.0445 158.913 75.2238C159.096 75.403 159.238 75.6285 159.34 75.9003C159.441 76.1701 159.492 76.4862 159.492 76.8485V77.1729H155.896V76.4409H158.38C158.38 76.2709 158.344 76.1202 158.27 75.989C158.196 75.8577 158.093 75.7552 157.962 75.6812C157.832 75.6054 157.682 75.5675 157.51 75.5675C157.331 75.5675 157.172 75.6091 157.033 75.6923C156.896 75.7736 156.789 75.8836 156.711 76.0223C156.634 76.159 156.594 76.3115 156.592 76.4797V77.1756C156.592 77.3864 156.631 77.5684 156.709 77.7218C156.788 77.8753 156.9 77.9936 157.044 78.0767C157.188 78.1599 157.359 78.2015 157.557 78.2015C157.688 78.2015 157.808 78.183 157.917 78.146C158.027 78.1091 158.12 78.0536 158.197 77.9797C158.275 77.9058 158.334 77.8152 158.375 77.708L159.467 77.7801C159.412 78.0425 159.298 78.2717 159.126 78.4677C158.956 78.6617 158.736 78.8133 158.466 78.9224C158.198 79.0296 157.889 79.0832 157.538 79.0832ZM161.434 79V74.7413H162.579V75.4844H162.624C162.701 75.2201 162.832 75.0204 163.015 74.8855C163.198 74.7487 163.408 74.6803 163.647 74.6803C163.706 74.6803 163.77 74.684 163.838 74.6914C163.906 74.6988 163.966 74.709 164.018 74.7219V75.7699C163.963 75.7533 163.886 75.7385 163.788 75.7256C163.69 75.7126 163.601 75.7062 163.519 75.7062C163.345 75.7062 163.19 75.7441 163.053 75.8199C162.918 75.8938 162.811 75.9973 162.732 76.1304C162.654 76.2635 162.615 76.4169 162.615 76.5906V79H161.434ZM170.519 79.0832C170.128 79.0832 169.789 79.0129 169.505 78.8725C169.22 78.732 169.001 78.5416 168.848 78.3013C168.696 78.0592 168.62 77.7893 168.62 77.4917C168.62 77.2699 168.665 77.0731 168.753 76.9012C168.842 76.7293 168.966 76.5712 169.125 76.427C169.284 76.281 169.469 76.1359 169.679 75.9918L170.78 75.2681C170.922 75.1775 171.027 75.0823 171.093 74.9825C171.16 74.8809 171.193 74.7709 171.193 74.6526C171.193 74.5398 171.148 74.4354 171.057 74.3393C170.967 74.2432 170.838 74.196 170.672 74.1979C170.561 74.1979 170.465 74.2229 170.384 74.2728C170.302 74.3208 170.238 74.3846 170.192 74.4641C170.148 74.5417 170.126 74.6286 170.126 74.7247C170.126 74.843 170.159 74.9631 170.225 75.0851C170.292 75.2071 170.381 75.3365 170.492 75.4733C170.603 75.6082 170.724 75.7542 170.855 75.9113L173.547 79H172.316L170.07 76.4991C169.922 76.3309 169.774 76.1553 169.627 75.9723C169.481 75.7875 169.359 75.5916 169.261 75.3846C169.163 75.1757 169.114 74.9493 169.114 74.7053C169.114 74.4299 169.177 74.1822 169.305 73.9622C169.434 73.7423 169.616 73.5685 169.848 73.441C170.081 73.3116 170.353 73.2469 170.664 73.2469C170.967 73.2469 171.228 73.3088 171.448 73.4327C171.67 73.5547 171.84 73.7173 171.958 73.9206C172.078 74.1221 172.139 74.3439 172.139 74.5861C172.139 74.8541 172.072 75.0971 171.939 75.3152C171.808 75.5315 171.623 75.7256 171.384 75.8975L170.225 76.732C170.068 76.8466 169.952 76.964 169.876 77.0841C169.802 77.2024 169.765 77.3161 169.765 77.4252C169.765 77.5601 169.799 77.6812 169.865 77.7884C169.932 77.8956 170.026 77.9806 170.148 78.0435C170.27 78.1045 170.413 78.135 170.578 78.135C170.777 78.135 170.974 78.0897 171.168 77.9991C171.364 77.9067 171.542 77.7764 171.7 77.6082C171.861 77.4381 171.99 77.2366 172.086 77.0037C172.182 76.7708 172.23 76.513 172.23 76.2302H173.209C173.209 76.5777 173.171 76.891 173.095 77.1701C173.019 77.4474 172.914 77.6895 172.779 77.8965C172.644 78.1017 172.49 78.2699 172.316 78.4011C172.261 78.4362 172.207 78.4695 172.155 78.5009C172.103 78.5324 172.05 78.5656 171.994 78.6007C171.784 78.7708 171.548 78.8937 171.287 78.9695C171.029 79.0453 170.773 79.0832 170.519 79.0832ZM178.211 73.3218H179.691L181.255 77.1368H181.321L182.885 73.3218H184.366V79H183.201V75.3042H183.154L181.685 78.9723H180.892L179.422 75.2903H179.375V79H178.211V73.3218ZM187.718 79.0804C187.447 79.0804 187.204 79.0333 186.992 78.939C186.779 78.8429 186.611 78.7015 186.487 78.5148C186.365 78.3263 186.304 78.0915 186.304 77.8106C186.304 77.574 186.348 77.3753 186.435 77.2145C186.521 77.0537 186.64 76.9243 186.789 76.8263C186.939 76.7283 187.109 76.6544 187.3 76.6045C187.492 76.5546 187.693 76.5195 187.904 76.4991C188.152 76.4733 188.351 76.4492 188.503 76.427C188.654 76.403 188.764 76.3679 188.833 76.3217C188.901 76.2755 188.935 76.2071 188.935 76.1165V76.0999C188.935 75.9243 188.88 75.7884 188.769 75.6923C188.66 75.5962 188.505 75.5481 188.303 75.5481C188.091 75.5481 187.922 75.5953 187.796 75.6895C187.67 75.782 187.587 75.8984 187.546 76.0389L186.454 75.9502C186.509 75.6914 186.618 75.4677 186.781 75.2792C186.944 75.0888 187.154 74.9428 187.41 74.8411C187.669 74.7376 187.969 74.6859 188.309 74.6859C188.545 74.6859 188.772 74.7136 188.988 74.769C189.206 74.8245 189.399 74.9104 189.568 75.0269C189.738 75.1433 189.872 75.2931 189.97 75.4761C190.068 75.6572 190.117 75.8744 190.117 76.1276V79H188.996V78.4094H188.963C188.895 78.5425 188.803 78.6599 188.689 78.7616C188.574 78.8614 188.436 78.9399 188.276 78.9972C188.115 79.0527 187.929 79.0804 187.718 79.0804ZM188.056 78.2653C188.23 78.2653 188.384 78.2311 188.517 78.1627C188.65 78.0924 188.754 77.9982 188.83 77.8799C188.906 77.7616 188.944 77.6276 188.944 77.4779V77.0259C188.907 77.05 188.856 77.0721 188.791 77.0925C188.728 77.111 188.657 77.1285 188.578 77.1451C188.498 77.1599 188.419 77.1738 188.339 77.1867C188.26 77.1978 188.188 77.208 188.123 77.2172C187.984 77.2376 187.863 77.2699 187.76 77.3143C187.656 77.3586 187.576 77.4187 187.519 77.4945C187.461 77.5684 187.433 77.6608 187.433 77.7717C187.433 77.9326 187.491 78.0555 187.607 78.1405C187.726 78.2237 187.875 78.2653 188.056 78.2653ZM194.123 80.6857C193.74 80.6857 193.412 80.633 193.138 80.5277C192.867 80.4242 192.65 80.2828 192.49 80.1035C192.329 79.9242 192.224 79.7227 192.176 79.4991L193.269 79.3521C193.302 79.4371 193.355 79.5166 193.427 79.5906C193.499 79.6645 193.594 79.7236 193.712 79.768C193.832 79.8142 193.978 79.8373 194.15 79.8373C194.407 79.8373 194.619 79.7745 194.785 79.6488C194.953 79.5249 195.038 79.317 195.038 79.025V78.2459H194.988C194.936 78.3642 194.858 78.476 194.755 78.5813C194.651 78.6867 194.518 78.7726 194.355 78.8392C194.193 78.9057 193.999 78.939 193.773 78.939C193.453 78.939 193.162 78.8651 192.9 78.7172C192.639 78.5675 192.431 78.3392 192.276 78.0324C192.123 77.7237 192.046 77.3337 192.046 76.8623C192.046 76.3799 192.124 75.977 192.282 75.6535C192.439 75.33 192.648 75.0879 192.908 74.9271C193.171 74.7663 193.458 74.6859 193.77 74.6859C194.009 74.6859 194.209 74.7265 194.369 74.8079C194.53 74.8873 194.66 74.9872 194.758 75.1073C194.857 75.2256 194.934 75.342 194.988 75.4566H195.032V74.7413H196.205V79.0416C196.205 79.4039 196.116 79.707 195.939 79.951C195.761 80.195 195.515 80.378 195.201 80.5C194.889 80.6238 194.529 80.6857 194.123 80.6857ZM194.148 78.0518C194.338 78.0518 194.499 78.0046 194.63 77.9104C194.763 77.8143 194.865 77.6775 194.935 77.5C195.007 77.3207 195.043 77.1063 195.043 76.8568C195.043 76.6073 195.008 76.391 194.938 76.208C194.867 76.0232 194.766 75.8799 194.633 75.7783C194.5 75.6766 194.338 75.6258 194.148 75.6258C193.953 75.6258 193.79 75.6785 193.657 75.7838C193.524 75.8873 193.423 76.0315 193.355 76.2163C193.286 76.4012 193.252 76.6147 193.252 76.8568C193.252 77.1026 193.286 77.3152 193.355 77.4945C193.425 77.6719 193.526 77.8096 193.657 77.9076C193.79 78.0037 193.953 78.0518 194.148 78.0518ZM199.53 79.0804C199.259 79.0804 199.016 79.0333 198.804 78.939C198.591 78.8429 198.423 78.7015 198.299 78.5148C198.177 78.3263 198.116 78.0915 198.116 77.8106C198.116 77.574 198.16 77.3753 198.247 77.2145C198.333 77.0537 198.452 76.9243 198.601 76.8263C198.751 76.7283 198.921 76.6544 199.112 76.6045C199.304 76.5546 199.505 76.5195 199.716 76.4991C199.964 76.4733 200.163 76.4492 200.315 76.427C200.466 76.403 200.576 76.3679 200.645 76.3217C200.713 76.2755 200.747 76.2071 200.747 76.1165V76.0999C200.747 75.9243 200.692 75.7884 200.581 75.6923C200.472 75.5962 200.317 75.5481 200.115 75.5481C199.903 75.5481 199.734 75.5953 199.608 75.6895C199.482 75.782 199.399 75.8984 199.358 76.0389L198.266 75.9502C198.321 75.6914 198.43 75.4677 198.593 75.2792C198.756 75.0888 198.966 74.9428 199.222 74.8411C199.481 74.7376 199.781 74.6859 200.121 74.6859C200.357 74.6859 200.584 74.7136 200.8 74.769C201.018 74.8245 201.211 74.9104 201.38 75.0269C201.55 75.1433 201.684 75.2931 201.782 75.4761C201.88 75.6572 201.929 75.8744 201.929 76.1276V79H200.808V78.4094H200.775C200.707 78.5425 200.615 78.6599 200.501 78.7616C200.386 78.8614 200.248 78.9399 200.088 78.9972C199.927 79.0527 199.741 79.0804 199.53 79.0804ZM199.868 78.2653C200.042 78.2653 200.196 78.2311 200.329 78.1627C200.462 78.0924 200.566 77.9982 200.642 77.8799C200.718 77.7616 200.756 77.6276 200.756 77.4779V77.0259C200.719 77.05 200.668 77.0721 200.603 77.0925C200.54 77.111 200.469 77.1285 200.39 77.1451C200.31 77.1599 200.231 77.1738 200.151 77.1867C200.072 77.1978 200 77.208 199.935 77.2172C199.796 77.2376 199.675 77.2699 199.572 77.3143C199.468 77.3586 199.388 77.4187 199.331 77.4945C199.273 77.5684 199.245 77.6608 199.245 77.7717C199.245 77.9326 199.303 78.0555 199.419 78.1405C199.538 78.2237 199.687 78.2653 199.868 78.2653ZM203.994 79V78.2958L206.079 75.7145V75.684H204.066V74.7413H207.501V75.5093L205.544 78.0268V78.0573H207.573V79H203.994ZM209.648 79V74.7413H210.829V79H209.648ZM210.241 74.1924C210.065 74.1924 209.915 74.1341 209.789 74.0177C209.665 73.8994 209.603 73.758 209.603 73.5935C209.603 73.4308 209.665 73.2913 209.789 73.1748C209.915 73.0565 210.065 72.9974 210.241 72.9974C210.416 72.9974 210.566 73.0565 210.69 73.1748C210.816 73.2913 210.879 73.4308 210.879 73.5935C210.879 73.758 210.816 73.8994 210.69 74.0177C210.566 74.1341 210.416 74.1924 210.241 74.1924ZM214.127 76.538V79H212.946V74.7413H214.072V75.4927H214.121C214.216 75.245 214.374 75.0491 214.596 74.9049C214.817 74.7589 215.086 74.6859 215.402 74.6859C215.698 74.6859 215.956 74.7506 216.176 74.88C216.396 75.0093 216.567 75.1942 216.689 75.4345C216.811 75.6729 216.872 75.9576 216.872 76.2884V79H215.691V76.4991C215.693 76.2385 215.626 76.0352 215.491 75.8892C215.356 75.7413 215.17 75.6674 214.934 75.6674C214.775 75.6674 214.634 75.7016 214.512 75.7699C214.392 75.8383 214.298 75.9382 214.23 76.0694C214.163 76.1988 214.129 76.355 214.127 76.538ZM220.915 79.0832C220.477 79.0832 220.1 78.9945 219.783 78.817C219.469 78.6377 219.227 78.3845 219.057 78.0573C218.887 77.7283 218.802 77.3392 218.802 76.8901C218.802 76.452 218.887 76.0675 219.057 75.7367C219.227 75.4058 219.466 75.148 219.775 74.9631C220.086 74.7783 220.45 74.6859 220.868 74.6859C221.149 74.6859 221.41 74.7312 221.652 74.8217C221.896 74.9104 222.109 75.0445 222.29 75.2238C222.473 75.403 222.615 75.6285 222.717 75.9003C222.819 76.1701 222.869 76.4862 222.869 76.8485V77.1729H219.273V76.4409H221.758C221.758 76.2709 221.721 76.1202 221.647 75.989C221.573 75.8577 221.47 75.7552 221.339 75.6812C221.21 75.6054 221.059 75.5675 220.887 75.5675C220.708 75.5675 220.549 75.6091 220.41 75.6923C220.273 75.7736 220.166 75.8836 220.088 76.0223C220.011 76.159 219.971 76.3115 219.969 76.4797V77.1756C219.969 77.3864 220.008 77.5684 220.086 77.7218C220.165 77.8753 220.277 77.9936 220.421 78.0767C220.565 78.1599 220.736 78.2015 220.934 78.2015C221.065 78.2015 221.185 78.183 221.295 78.146C221.404 78.1091 221.497 78.0536 221.575 77.9797C221.652 77.9058 221.711 77.8152 221.752 77.708L222.844 77.7801C222.789 78.0425 222.675 78.2717 222.503 78.4677C222.333 78.6617 222.113 78.8133 221.844 78.9224C221.576 79.0296 221.266 79.0832 220.915 79.0832ZM228.355 75.9557L227.273 76.0223C227.255 75.9298 227.215 75.8467 227.154 75.7727C227.093 75.6969 227.013 75.6369 226.913 75.5925C226.815 75.5463 226.698 75.5232 226.561 75.5232C226.378 75.5232 226.223 75.562 226.098 75.6396C225.972 75.7154 225.909 75.8171 225.909 75.9446C225.909 76.0463 225.95 76.1322 226.031 76.2025C226.113 76.2727 226.252 76.3291 226.45 76.3716L227.221 76.5269C227.635 76.6119 227.943 76.7487 228.147 76.9372C228.35 77.1257 228.452 77.3734 228.452 77.6803C228.452 77.9594 228.369 78.2043 228.205 78.415C228.042 78.6257 227.819 78.7902 227.534 78.9085C227.251 79.025 226.925 79.0832 226.555 79.0832C225.991 79.0832 225.542 78.9658 225.208 78.7311C224.875 78.4945 224.68 78.1728 224.623 77.7662L225.784 77.7052C225.82 77.8771 225.905 78.0083 226.04 78.0989C226.174 78.1876 226.347 78.232 226.558 78.232C226.765 78.232 226.931 78.1923 227.057 78.1128C227.185 78.0314 227.249 77.927 227.251 77.7995C227.249 77.6923 227.204 77.6045 227.115 77.5361C227.027 77.4658 226.89 77.4122 226.705 77.3753L225.967 77.2283C225.552 77.1451 225.242 77.001 225.039 76.7958C224.837 76.5906 224.736 76.3291 224.736 76.0112C224.736 75.7376 224.81 75.5019 224.958 75.3042C225.108 75.1064 225.318 74.9539 225.588 74.8467C225.859 74.7395 226.177 74.6859 226.541 74.6859C227.079 74.6859 227.503 74.7995 227.811 75.0269C228.122 75.2542 228.303 75.5639 228.355 75.9557Z" fill="black"/>
<defs>
<clipPath id="clip0_3036_34">
<rect width="247" height="60" fill="white"/>
</clipPath>
</defs>
</svg>
