<svg width="123" height="30" viewBox="0 0 123 30" fill="none" xmlns="http://www.w3.org/2000/svg">
<path fill-rule="evenodd" clip-rule="evenodd" d="M2.17085 0H120.829C122.023 0 123 0.976354 123 2.17114V27.3839C123 28.5776 122.023 29.5542 120.829 29.5542H2.17085C0.976608 29.5542 0 28.5776 0 27.3839V2.17114C0 0.976354 0.976608 0 2.17085 0Z" fill="#FFCB00"/>
<path fill-rule="evenodd" clip-rule="evenodd" d="M79.6022 1.24805H119.044C120.238 1.24805 121.215 2.22465 121.215 3.4186V26.1352C121.215 27.3289 120.238 28.3063 119.044 28.3063H79.6022V1.24805Z" fill="white"/>
<path fill-rule="evenodd" clip-rule="evenodd" d="M14.682 6.89419L15.0632 9.33779C14.6708 9.19177 14.2673 9.07967 13.8524 9.00478C13.4416 8.92639 13.0305 8.88919 12.6235 8.88919C10.9158 8.88919 9.4961 9.44602 8.37158 10.5591C7.2433 11.673 6.67915 13.0662 6.67915 14.7437C6.67915 16.5189 7.28045 17.9758 8.47987 19.1223C9.67928 20.2693 11.226 20.8416 13.1165 20.8416C13.4155 20.8416 13.7254 20.8186 14.0467 20.77C14.3683 20.7217 14.7118 20.6468 15.0855 20.5461L14.5924 22.9669C14.5626 22.975 14.5214 22.9821 14.4616 22.9859C13.901 23.0605 13.4791 23.098 13.2025 23.098C10.4901 23.098 8.31541 22.3398 6.68647 20.8224C5.05373 19.3022 4.23938 17.2842 4.23938 14.766C4.23938 12.4234 5.00892 10.4848 6.54835 8.94891C8.08749 7.41305 10.0529 6.64345 12.4476 6.64345C12.6756 6.64345 12.8962 6.64736 13.1092 6.65838C13.3257 6.66979 13.5276 6.6885 13.7181 6.71074C13.8489 6.73004 14.0581 6.77074 14.342 6.83042C14.4953 6.86026 14.6074 6.88278 14.682 6.89419ZM19.1917 6.57617V15.0948C19.5205 14.7364 19.8904 14.4634 20.2977 14.2805C20.7047 14.0936 21.1419 14.0002 21.6092 14.0002C22.4647 14.0002 23.0997 14.2805 23.5219 14.8447C23.9404 15.405 24.1496 16.2568 24.1496 17.4038V22.8776L21.9714 23.0754V17.8746C21.9714 17.3105 21.8594 16.8807 21.639 16.5819C21.4149 16.2828 21.0933 16.1336 20.6675 16.1336C20.1891 16.1336 19.8193 16.2977 19.5691 16.6302C19.3187 16.9631 19.1917 17.4562 19.1917 18.1026V22.8776L17.0135 23.0754V6.80819L19.1917 6.57617ZM29.2793 18.8838C28.8872 18.8838 28.5583 19.0032 28.3005 19.2382C28.0427 19.4778 27.912 19.7614 27.912 20.0981C27.912 20.4414 28.0389 20.7293 28.2929 20.9613C28.5507 21.196 28.8796 21.3122 29.2793 21.3122C29.6717 21.3122 30.0006 21.196 30.2584 20.9613C30.5161 20.7293 30.6469 20.4414 30.6469 20.0981C30.6469 19.7614 30.5161 19.4778 30.2546 19.2382C29.9892 19.0032 29.6643 18.8838 29.2793 18.8838ZM32.7279 17.165V22.8551L30.7327 23.0754V22.2315C30.4863 22.5373 30.191 22.7731 29.8473 22.9335C29.5073 23.0947 29.1113 23.1728 28.6666 23.1728C27.8484 23.1728 27.1684 22.8885 26.623 22.3205C26.0738 21.7491 25.8011 21.0394 25.8011 20.1836C25.8011 19.287 26.0776 18.5549 26.6268 17.9911C27.176 17.4266 27.897 17.1422 28.7862 17.1422C29.1898 17.1422 29.5447 17.206 29.8586 17.333C30.1723 17.4597 30.4339 17.6507 30.6469 17.8974V17.1197C30.6469 16.7051 30.5349 16.4174 30.3069 16.2568C30.0828 16.0962 29.6679 16.014 29.0701 16.014C28.7301 16.014 28.3827 16.044 28.0389 16.1073C27.6916 16.171 27.344 16.2568 26.9928 16.3765L27.5084 14.2954C27.9754 14.2281 28.3827 14.1834 28.7377 14.1532C29.0926 14.1234 29.4066 14.1085 29.6866 14.1085C30.7927 14.1085 31.5771 14.3101 32.0368 14.7174C32.4962 15.1209 32.7279 15.9393 32.7279 17.165ZM42.1017 17.4038V22.8776L39.9235 23.0754V17.8746C39.9235 17.3105 39.8115 16.8807 39.5911 16.5819C39.367 16.2828 39.0454 16.1336 38.6197 16.1336C38.1413 16.1336 37.7714 16.2977 37.5212 16.6302C37.2708 16.9631 37.1437 17.4562 37.1437 18.1026V22.8776L34.9656 23.0754V14.3402L37.1437 14.1085V15.0948C37.4726 14.7364 37.8425 14.4678 38.2498 14.2805C38.6568 14.0936 39.094 14.0002 39.5612 14.0002C40.4168 14.0002 41.0518 14.2805 41.474 14.8447C41.8925 15.405 42.1017 16.2568 42.1017 17.4038ZM48.3934 16.059C47.7247 16.059 47.153 16.3092 46.6822 16.8098C46.2116 17.3067 45.9761 17.9124 45.9761 18.6181C45.9761 19.3353 46.2078 19.9369 46.6748 20.4302C47.1419 20.9236 47.7171 21.17 48.3934 21.17C49.066 21.17 49.634 20.9236 50.0972 20.4302C50.5604 19.9369 50.7921 19.3353 50.7921 18.6181C50.7921 17.9124 50.5604 17.3067 50.0972 16.8098C49.634 16.3092 49.066 16.059 48.3934 16.059ZM52.9478 6.57617V22.8326L50.7474 23.0307V22.0446C50.4112 22.4104 50.0188 22.6872 49.5705 22.8695C49.1219 23.057 48.6289 23.1506 48.087 23.1506C46.8764 23.1506 45.8567 22.7091 45.0234 21.8313C44.1903 20.9531 43.7754 19.8734 43.7754 18.5959C43.7754 17.3297 44.209 16.2495 45.0719 15.3567C45.9387 14.4677 46.985 14.023 48.2178 14.023C48.7299 14.023 49.193 14.105 49.6039 14.2729C50.015 14.4414 50.396 14.7024 50.7474 15.0504V6.80819L52.9478 6.57617ZM59.7814 14.1758V16.3092C58.8848 16.3241 58.2683 16.4923 57.9321 16.8133C57.5958 17.1349 57.4276 17.7368 57.4276 18.6181V22.8776L55.2494 23.0754V14.3402L57.4276 14.1085V15.2373C57.7041 14.878 58.0365 14.6132 58.4251 14.4376C58.8102 14.2615 59.2622 14.1758 59.7814 14.1758ZM63.8799 18.8838C63.4878 18.8838 63.1589 19.0032 62.9011 19.2382C62.6434 19.4778 62.5126 19.7614 62.5126 20.0981C62.5126 20.4414 62.6396 20.7293 62.8935 20.9613C63.1513 21.196 63.4802 21.3122 63.8799 21.3122C64.2723 21.3122 64.6012 21.196 64.859 20.9613C65.1167 20.7293 65.2475 20.4414 65.2475 20.0981C65.2475 19.7614 65.1167 19.4778 64.8552 19.2382C64.5898 19.0032 64.2649 18.8838 63.8799 18.8838ZM67.3286 17.165V22.8551L65.3333 23.0754V22.2315C65.0869 22.5373 64.7917 22.7731 64.4479 22.9335C64.1079 23.0947 63.712 23.1728 63.2672 23.1728C62.4491 23.1728 61.769 22.8885 61.2236 22.3205C60.6744 21.7491 60.4017 21.0394 60.4017 20.1836C60.4017 19.287 60.6782 18.5549 61.2274 17.9911C61.7767 17.4266 62.4976 17.1422 63.3869 17.1422C63.7904 17.1422 64.1453 17.206 64.4593 17.333C64.773 17.4597 65.0345 17.6507 65.2475 17.8974V17.1197C65.2475 16.7051 65.1355 16.4174 64.9075 16.2568C64.6834 16.0962 64.2685 16.014 63.6707 16.014C63.3307 16.014 62.9833 16.044 62.6396 16.1073C62.2922 16.171 61.9446 16.2568 61.5935 16.3765L62.1091 14.2954C62.576 14.2281 62.9833 14.1834 63.3383 14.1532C63.6932 14.1234 64.0072 14.1085 64.2872 14.1085C65.3933 14.1085 66.1777 14.3101 66.6374 14.7174C67.0969 15.1209 67.3286 15.9393 67.3286 17.165ZM72.4843 18.8838C72.0922 18.8838 71.7634 19.0032 71.5055 19.2382C71.2478 19.4778 71.117 19.7614 71.117 20.0981C71.117 20.4414 71.244 20.7293 71.4979 20.9613C71.7558 21.196 72.0847 21.3122 72.4843 21.3122C72.8767 21.3122 73.2056 21.196 73.4634 20.9613C73.7212 20.7293 73.852 20.4414 73.852 20.0981C73.852 19.7614 73.7212 19.4778 73.4596 19.2382C73.1942 19.0032 72.8694 18.8838 72.4843 18.8838ZM75.933 17.165V22.8551L73.9377 23.0754V22.2315C73.6913 22.5373 73.3961 22.7731 73.0523 22.9335C72.7123 23.0947 72.3164 23.1728 71.8716 23.1728C71.0535 23.1728 70.3735 22.8885 69.828 22.3205C69.2788 21.7491 69.0061 21.0394 69.0061 20.1836C69.0061 19.287 69.2826 18.5549 69.8319 17.9911C70.3811 17.4266 71.1021 17.1422 71.9913 17.1422C72.3948 17.1422 72.7497 17.206 73.0637 17.333C73.3774 17.4597 73.639 17.6507 73.852 17.8974V17.1197C73.852 16.7051 73.7399 16.4174 73.5119 16.2568C73.2878 16.0962 72.8729 16.014 72.2751 16.014C71.9351 16.014 71.5878 16.044 71.244 16.1073C70.8967 16.171 70.549 16.2568 70.1979 16.3765L70.7135 14.2954C71.1805 14.2281 71.5878 14.1834 71.9427 14.1532C72.2977 14.1234 72.6116 14.1085 72.8917 14.1085C73.9977 14.1085 74.7822 14.3101 75.2419 14.7174C75.7013 15.1209 75.933 15.9393 75.933 17.165Z" fill="#95001E"/>
<path fill-rule="evenodd" clip-rule="evenodd" d="M92.6241 11.1852L90.5205 15.2879H94.6603L92.6241 11.1852ZM92.7324 6.80664L101.053 23.3127L98.7665 23.8923L95.5121 17.3019H89.4821L86.1455 23.8923L84.1093 23.3127L92.7324 6.80664ZM105.734 16.6029C105.066 16.6029 104.494 16.8534 104.023 17.354C103.553 17.8506 103.317 18.4557 103.317 19.1623C103.317 19.8795 103.549 20.4808 104.016 20.9741C104.483 21.4672 105.058 21.7142 105.734 21.7142C106.407 21.7142 106.975 21.4672 107.438 20.9741C107.901 20.4808 108.133 19.8795 108.133 19.1623C108.133 18.4557 107.901 17.8506 107.438 17.354C106.975 16.8534 106.407 16.6029 105.734 16.6029ZM110.289 7.12033V23.377L108.088 23.5746V22.5882C107.752 22.9542 107.36 23.231 106.912 23.4136C106.463 23.6006 105.97 23.694 105.428 23.694C104.218 23.694 103.198 23.253 102.364 22.3755C101.531 21.497 101.116 20.4176 101.116 19.1398C101.116 17.8731 101.55 16.7931 102.413 15.9003C103.28 15.0111 104.326 14.5663 105.559 14.5663C106.071 14.5663 106.534 14.6486 106.945 14.8174C107.356 14.9848 107.737 15.2467 108.088 15.594V7.35205L110.289 7.12033ZM117.634 16.229L116.364 17.3874C116.218 17.0026 116.02 16.7079 115.774 16.506C115.523 16.3074 115.232 16.2072 114.896 16.2072C114.679 16.2072 114.496 16.2745 114.354 16.4086C114.212 16.5432 114.141 16.7147 114.141 16.9166C114.141 17.2905 114.563 17.6338 115.411 17.948C115.579 18.0039 115.71 18.0522 115.807 18.0896C116.469 18.3363 116.954 18.6652 117.261 19.076C117.567 19.4833 117.72 19.9992 117.72 20.6195C117.72 21.4862 117.433 22.2069 116.857 22.783C116.278 23.3542 115.546 23.6416 114.657 23.6416C114.115 23.6416 113.622 23.5333 113.177 23.3127C112.732 23.0964 112.359 22.783 112.052 22.3714L113.289 20.8732C113.461 21.1719 113.678 21.4078 113.928 21.5795C114.178 21.7511 114.444 21.8374 114.72 21.8374C115 21.8374 115.236 21.7443 115.434 21.5568C115.632 21.37 115.729 21.1503 115.729 20.8958C115.729 20.6382 115.651 20.4325 115.493 20.2754C115.337 20.1183 114.982 19.9428 114.425 19.7454C113.596 19.4535 113.005 19.1132 112.665 18.7325C112.322 18.3474 112.15 17.8506 112.15 17.2378C112.15 16.4832 112.426 15.8404 112.983 15.3031C113.536 14.7682 114.201 14.4991 114.974 14.4991C115.527 14.4991 116.043 14.6526 116.517 14.9587C116.992 15.2654 117.362 15.6873 117.634 16.229Z" fill="#95001E"/>
</svg>
