<svg width="100" height="100" viewBox="0 0 100 100" fill="none" xmlns="http://www.w3.org/2000/svg">
<circle cx="50" cy="50" r="50" fill="#FFCB00"/>
<path d="M96 50C96 56.0408 94.8102 62.0225 92.4985 67.6034C90.1867 73.1844 86.7984 78.2554 82.5269 82.5269C78.2554 86.7984 73.1844 90.1867 67.6034 92.4985C62.0225 94.8102 56.0408 96 50 96C43.9592 96 37.9775 94.8102 32.3966 92.4985C26.8156 90.1867 21.7446 86.7984 17.4731 82.5269C13.2016 78.2554 9.81326 73.1844 7.50154 67.6034C5.18982 62.0225 4 56.0408 4 50L50 50H96Z" fill="white"/>
<path fill-rule="evenodd" clip-rule="evenodd" d="M40.4689 64.8692L38.1296 69.4315H42.7333L40.4689 64.8692ZM40.5893 60L49.8421 78.3555L47.2995 79L43.6805 71.6712H36.9748L33.2644 79L31 78.3555L40.5893 60ZM55.0481 70.8938C54.3046 70.8938 53.6688 71.1724 53.1452 71.7291C52.622 72.2813 52.36 72.9542 52.36 73.7401C52.36 74.5376 52.6177 75.2062 53.1371 75.7549C53.6564 76.3032 54.2961 76.5778 55.0481 76.5778C55.7962 76.5778 56.4277 76.3032 56.9429 75.7549C57.458 75.2062 57.7157 74.5376 57.7157 73.7401C57.7157 72.9542 57.458 72.2813 56.9429 71.7291C56.4277 71.1724 55.7962 70.8938 55.0481 70.8938ZM60.1128 60.3488V78.427L57.6658 78.6467V77.5497C57.292 77.9568 56.8556 78.2646 56.3572 78.4677C55.8584 78.6756 55.31 78.7794 54.7074 78.7794C53.3613 78.7794 52.2273 78.289 51.3006 77.3132C50.3742 76.3364 49.9128 75.136 49.9128 73.715C49.9128 72.3064 50.395 71.1054 51.3546 70.1126C52.3184 69.1237 53.482 68.6291 54.8529 68.6291C55.4223 68.6291 55.9374 68.7206 56.3942 68.9083C56.8514 69.0945 57.2751 69.3857 57.6658 69.7719V60.6065L60.1128 60.3488ZM68.2815 70.478L66.8686 71.7662C66.7066 71.3383 66.4866 71.0106 66.2123 70.7861C65.9338 70.5652 65.61 70.4538 65.2358 70.4538C64.995 70.4538 64.7913 70.5287 64.6335 70.6778C64.4757 70.8275 64.3966 71.0181 64.3966 71.2427C64.3966 71.6585 64.8662 72.0402 65.8092 72.3897C65.9962 72.4518 66.1417 72.5055 66.2497 72.5472C66.9851 72.8215 67.5253 73.1872 67.866 73.6441C68.2066 74.097 68.3769 74.6706 68.3769 75.3605C68.3769 76.3243 68.057 77.1258 67.4172 77.7664C66.7733 78.4016 65.9588 78.7212 64.9699 78.7212C64.3676 78.7212 63.8191 78.6008 63.3248 78.3555C62.8302 78.115 62.4147 77.7664 62.074 77.3086L63.4494 75.6426C63.6404 75.9748 63.8815 76.2371 64.1597 76.4281C64.4382 76.6188 64.7331 76.7148 65.0406 76.7148C65.3523 76.7148 65.6139 76.6113 65.8342 76.4028C66.0545 76.1951 66.1625 75.9507 66.1625 75.6677C66.1625 75.3813 66.0753 75.1526 65.9006 74.9778C65.7262 74.8031 65.3315 74.6079 64.7123 74.3885C63.7901 74.0639 63.1334 73.6854 62.7553 73.262C62.3733 72.8339 62.182 72.2813 62.182 71.5999C62.182 70.7608 62.4895 70.0459 63.1087 69.4484C63.7237 68.8536 64.463 68.5543 65.323 68.5543C65.938 68.5543 66.5114 68.7251 67.0392 69.0654C67.5669 69.4065 67.9782 69.8757 68.2815 70.478Z" fill="#95001E"/>
<path fill-rule="evenodd" clip-rule="evenodd" d="M25.0672 22.3066L25.4347 24.6623C25.0564 24.5216 24.6674 24.4135 24.2674 24.3413C23.8714 24.2657 23.4751 24.2299 23.0827 24.2299C21.4364 24.2299 20.0677 24.7667 18.9836 25.8398C17.8959 26.9136 17.3521 28.2567 17.3521 29.8739C17.3521 31.5853 17.9317 32.9898 19.088 34.0951C20.2443 35.2009 21.7354 35.7526 23.558 35.7526C23.8463 35.7526 24.145 35.7304 24.4548 35.6836C24.7648 35.637 25.0959 35.5648 25.4562 35.4677L24.9808 37.8015C24.9521 37.8093 24.9123 37.8161 24.8547 37.8197C24.3143 37.8917 23.9075 37.9278 23.6409 37.9278C21.026 37.9278 18.9295 37.1969 17.3591 35.734C15.7851 34.2685 15 32.323 15 29.8954C15 27.637 15.7419 25.7681 17.226 24.2874C18.7098 22.8068 20.6045 22.0649 22.9131 22.0649C23.1329 22.0649 23.3455 22.0686 23.5509 22.0792C23.7597 22.0902 23.9543 22.1083 24.138 22.1297C24.2641 22.1483 24.4657 22.1876 24.7394 22.2451C24.8872 22.2739 24.9952 22.2956 25.0672 22.3066ZM29.4147 22V30.2124C29.7317 29.8668 30.0883 29.6037 30.481 29.4274C30.8734 29.2471 31.2948 29.1571 31.7453 29.1571C32.5701 29.1571 33.1823 29.4274 33.5893 29.9712C33.9927 30.5114 34.1944 31.3326 34.1944 32.4384V37.7154L32.0945 37.9061V32.8923C32.0945 32.3484 31.9865 31.934 31.7741 31.646C31.558 31.3577 31.248 31.2138 30.8376 31.2138C30.3763 31.2138 30.0198 31.3721 29.7786 31.6925C29.5372 32.0136 29.4147 32.4889 29.4147 33.112V37.7154L27.3149 37.9061V22.2237L29.4147 22ZM39.1397 33.8651C38.7617 33.8651 38.4446 33.9803 38.1961 34.2068C37.9476 34.4378 37.8215 34.7112 37.8215 35.0358C37.8215 35.3667 37.9439 35.6443 38.1888 35.8679C38.4373 36.0943 38.7544 36.2062 39.1397 36.2062C39.518 36.2062 39.835 36.0943 40.0836 35.8679C40.3321 35.6443 40.4582 35.3667 40.4582 35.0358C40.4582 34.7112 40.3321 34.4378 40.0799 34.2068C39.824 33.9803 39.5109 33.8651 39.1397 33.8651ZM42.4644 32.2082V37.6937L40.5409 37.9061V37.0925C40.3033 37.3873 40.0187 37.6147 39.6873 37.7693C39.3595 37.9247 38.9778 38 38.549 38C37.7603 38 37.1047 37.7258 36.5789 37.1783C36.0494 36.6274 35.7865 35.9433 35.7865 35.1182C35.7865 34.2539 36.0531 33.5481 36.5825 33.0045C37.112 32.4604 37.8071 32.1862 38.6644 32.1862C39.0534 32.1862 39.3956 32.2477 39.6982 32.3701C40.0006 32.4923 40.2528 32.6764 40.4582 32.9143V32.1645C40.4582 31.7648 40.3501 31.4875 40.1304 31.3326C39.9143 31.1777 39.5143 31.0985 38.938 31.0985C38.6102 31.0985 38.2754 31.1275 37.9439 31.1884C37.6091 31.2499 37.2739 31.3326 36.9354 31.448L37.4325 29.4418C37.8827 29.3768 38.2754 29.3337 38.6175 29.3047C38.9597 29.2759 39.2624 29.2615 39.5324 29.2615C40.5987 29.2615 41.3549 29.4559 41.7981 29.8486C42.241 30.2375 42.4644 31.0265 42.4644 32.2082ZM51.5011 32.4384V37.7154L49.4012 37.9061V32.8923C49.4012 32.3484 49.2932 31.934 49.0808 31.646C48.8647 31.3577 48.5547 31.2138 48.1443 31.2138C47.6831 31.2138 47.3265 31.3721 47.0853 31.6925C46.8439 32.0136 46.7214 32.4889 46.7214 33.112V37.7154L44.6216 37.9061V29.4849L46.7214 29.2615V30.2124C47.0385 29.8668 47.3951 29.6079 47.7877 29.4274C48.1801 29.2471 48.6015 29.1571 49.052 29.1571C49.8768 29.1571 50.489 29.4274 50.896 29.9712C51.2994 30.5114 51.5011 31.3326 51.5011 32.4384ZM57.5666 31.1419C56.922 31.1419 56.3708 31.3831 55.9169 31.8657C55.4633 32.3447 55.2362 32.9286 55.2362 33.609C55.2362 34.3004 55.4596 34.8804 55.9099 35.356C56.3601 35.8316 56.9147 36.0691 57.5666 36.0691C58.2151 36.0691 58.7626 35.8316 59.2092 35.356C59.6557 34.8804 59.8791 34.3004 59.8791 33.609C59.8791 32.9286 59.6557 32.3447 59.2092 31.8657C58.7626 31.3831 58.2151 31.1419 57.5666 31.1419ZM61.9573 22V37.672L59.836 37.8629V36.9123C59.5119 37.2649 59.1336 37.5318 58.7014 37.7076C58.269 37.8883 57.7936 37.9786 57.2712 37.9786C56.1042 37.9786 55.1211 37.5529 54.3178 36.7066C53.5146 35.8601 53.1147 34.8192 53.1147 33.5876C53.1147 32.367 53.5327 31.3255 54.3646 30.4648C55.2001 29.6079 56.2089 29.1791 57.3973 29.1791C57.891 29.1791 58.3375 29.2581 58.7336 29.42C59.1299 29.5825 59.4972 29.8341 59.836 30.1695V22.2237L61.9573 22ZM68.5452 29.3264V31.3831C67.6808 31.3975 67.0865 31.5597 66.7624 31.8691C66.4382 32.1791 66.276 32.7594 66.276 33.609V37.7154L64.1762 37.9061V29.4849L66.276 29.2615V30.3497C66.5426 30.0034 66.8631 29.7481 67.2377 29.5788C67.6089 29.409 68.0447 29.3264 68.5452 29.3264ZM72.4964 33.8651C72.1184 33.8651 71.8013 33.9803 71.5528 34.2068C71.3043 34.4378 71.1782 34.7112 71.1782 35.0358C71.1782 35.3667 71.3006 35.6443 71.5455 35.8679C71.794 36.0943 72.111 36.2062 72.4964 36.2062C72.8747 36.2062 73.1917 36.0943 73.4402 35.8679C73.6887 35.6443 73.8148 35.3667 73.8148 35.0358C73.8148 34.7112 73.6887 34.4378 73.4366 34.2068C73.1807 33.9803 72.8676 33.8651 72.4964 33.8651ZM75.8211 32.2082V37.6937L73.8975 37.9061V37.0925C73.66 37.3873 73.3754 37.6147 73.0439 37.7693C72.7161 37.9247 72.3345 38 71.9057 38C71.117 38 70.4614 37.7258 69.9356 37.1783C69.4061 36.6274 69.1432 35.9433 69.1432 35.1182C69.1432 34.2539 69.4097 33.5481 69.9393 33.0045C70.4687 32.4604 71.1638 32.1862 72.0211 32.1862C72.4101 32.1862 72.7522 32.2477 73.0549 32.3701C73.3573 32.4923 73.6095 32.6764 73.8148 32.9143V32.1645C73.8148 31.7648 73.7068 31.4875 73.487 31.3326C73.271 31.1777 72.871 31.0985 72.2947 31.0985C71.9669 31.0985 71.632 31.1275 71.3006 31.1884C70.9658 31.2499 70.6307 31.3326 70.2921 31.448L70.7892 29.4418C71.2394 29.3768 71.632 29.3337 71.9742 29.3047C72.3164 29.2759 72.6191 29.2615 72.8891 29.2615C73.9553 29.2615 74.7116 29.4559 75.1548 29.8486C75.5977 30.2375 75.8211 31.0265 75.8211 32.2082ZM80.7915 33.8651C80.4134 33.8651 80.0964 33.9803 79.8479 34.2068C79.5994 34.4378 79.4733 34.7112 79.4733 35.0358C79.4733 35.3667 79.5957 35.6443 79.8405 35.8679C80.0891 36.0943 80.4061 36.2062 80.7915 36.2062C81.1697 36.2062 81.4868 36.0943 81.7353 35.8679C81.9839 35.6443 82.1099 35.3667 82.1099 35.0358C82.1099 34.7112 81.9839 34.4378 81.7317 34.2068C81.4758 33.9803 81.1627 33.8651 80.7915 33.8651ZM84.1162 32.2082V37.6937L82.1926 37.9061V37.0925C81.9551 37.3873 81.6705 37.6147 81.339 37.7693C81.0112 37.9247 80.6295 38 80.2007 38C79.4121 38 78.7565 37.7258 78.2307 37.1783C77.7012 36.6274 77.4383 35.9433 77.4383 35.1182C77.4383 34.2539 77.7049 33.5481 78.2343 33.0045C78.7638 32.4604 79.4589 32.1862 80.3161 32.1862C80.7051 32.1862 81.0473 32.2477 81.35 32.3701C81.6524 32.4923 81.9046 32.6764 82.1099 32.9143V32.1645C82.1099 31.7648 82.0019 31.4875 81.7821 31.3326C81.5661 31.1777 81.1661 31.0985 80.5898 31.0985C80.262 31.0985 79.9272 31.1275 79.5957 31.1884C79.2609 31.2499 78.9257 31.3326 78.5872 31.448L79.0843 29.4418C79.5345 29.3768 79.9272 29.3337 80.2693 29.3047C80.6115 29.2759 80.9142 29.2615 81.1841 29.2615C82.2504 29.2615 83.0067 29.4559 83.4499 29.8486C83.8928 30.2375 84.1162 31.0265 84.1162 32.2082Z" fill="#95001E"/>
</svg>
