<svg width="287" height="29" viewBox="0 0 287 29" fill="none" xmlns="http://www.w3.org/2000/svg">
<path fill-rule="evenodd" clip-rule="evenodd" d="M46.0353 2.72343H26.5193L24.4962 10.0709H25.3777C28.3477 5.23922 29.3919 3.83046 32.1005 3.83046H34.1562L30.2074 22.8867C29.8153 24.7659 29.2612 24.9671 26.65 25.2688L26.454 26.2759H36.44L36.6681 25.2688C34.351 25.0339 33.6335 24.8665 34.0576 22.8867L37.9737 3.83046H40.3889C43.0974 3.83046 42.5221 5.23987 43.3383 10.0709H44.1871L46.0353 2.72343Z" fill="black"/>
<path fill-rule="evenodd" clip-rule="evenodd" d="M57.7274 24.1281C57.434 24.1281 57.2706 23.9606 57.2706 23.6252C57.2706 23.3565 57.4013 22.7861 57.564 22.1827L60.1092 12.3862C60.2072 11.8833 60.3052 11.2792 60.3052 10.8431C60.3052 9.30004 59.7178 8.36043 58.0861 8.36043C54.9528 8.36043 51.2981 12.8229 49.3723 16.6475L53.4518 0.006489H52.9624L47.2512 1.34841L47.1212 1.88506L49.2096 2.92524L43.5638 26.2766H47.1212L48.2961 21.4786C49.7317 15.5405 54.2353 10.7763 56.0957 10.7763C56.5198 10.7763 56.6832 11.0112 56.6832 11.481C56.6832 11.7496 56.6178 12.152 56.5198 12.5549L54.17 21.2774C53.8439 22.5188 53.7132 23.3572 53.7132 24.1294C53.7132 25.6056 54.5294 26.612 55.965 26.612C57.76 26.612 59.0983 25.1695 61.1541 22.0827L60.5993 21.6467C59.1963 23.4247 58.3475 24.1294 57.7274 24.1294V24.1281Z" fill="black"/>
<path fill-rule="evenodd" clip-rule="evenodd" d="M75.3958 11.7483C75.3958 9.90287 74.1229 8.35978 71.3163 8.35978C66.0299 8.35978 61.591 14.5328 61.591 20.404C61.591 24.1281 63.6141 26.6108 66.9754 26.6108C69.8473 26.6108 72.0665 24.9333 74.1549 21.7797L73.5348 21.2761C71.9358 23.3559 70.4021 24.4635 68.5418 24.4635C66.4207 24.4635 65.1477 22.7524 65.1477 19.7331C65.1477 19.3301 65.1804 18.894 65.2131 18.4917C70.4342 17.4178 75.3958 15.9753 75.3958 11.7483ZM70.7615 9.4668C71.9038 9.4668 72.3605 10.3389 72.3605 11.4129C72.3605 14.7008 70.0107 16.5463 65.3111 17.6871C65.8985 13.6276 68.1503 9.46745 70.7609 9.46745L70.7615 9.4668Z" fill="black"/>
<path fill-rule="evenodd" clip-rule="evenodd" d="M88.3102 6.11199C88.7022 4.23342 89.1263 4.03227 91.5408 3.72988L91.7695 2.72343H82.403L82.2069 3.72988C84.3287 3.99852 84.8828 4.13285 84.4587 6.11199L80.9667 22.8867C80.6079 24.7659 80.1505 24.9671 77.736 25.2688L77.5073 26.2759H86.8739L87.1019 25.2688C84.9482 25.0008 84.3934 24.8665 84.8175 22.8867L88.3089 6.11199H88.3102Z" fill="black"/>
<path fill-rule="evenodd" clip-rule="evenodd" d="M102.765 24.1287C102.471 24.1287 102.308 23.9606 102.308 23.6252C102.308 23.3565 102.439 22.7868 102.601 22.1827L105.146 12.3862C105.244 11.8833 105.342 11.2792 105.342 10.8431C105.342 9.29939 104.755 8.36043 103.123 8.36043C99.9907 8.36043 96.3353 12.856 94.3775 16.6475L96.564 8.36043H96.0745L90.3961 9.80294L90.298 10.3065L92.2237 11.4135L88.601 26.2766H92.1584L93.3333 21.4786C94.769 15.5399 99.2726 10.7763 101.133 10.7763C101.557 10.7763 101.72 11.0112 101.72 11.4803C101.72 11.749 101.622 12.1513 101.524 12.5543L99.2072 21.2774C98.8811 22.5188 98.7504 23.3572 98.7504 24.1294C98.7504 25.6056 99.5666 26.612 101.002 26.612C102.797 26.612 104.136 25.1695 106.191 22.0827L105.637 21.6467C104.233 23.4247 103.385 24.1287 102.765 24.1287Z" fill="black"/>
<path fill-rule="evenodd" clip-rule="evenodd" d="M120.663 24.1281C120.37 24.1281 120.206 23.9606 120.206 23.6252C120.206 23.3565 120.337 22.7861 120.5 22.1827L125.82 0.0058401H125.363L119.619 1.34777L119.521 1.88441L121.61 2.92459L120.011 9.46681C119.163 8.66152 118.347 8.35978 116.976 8.35978C111.885 8.35978 106.631 14.7008 106.631 21.6123C106.631 24.6984 107.936 26.6114 110.188 26.6114C112.864 26.6114 116.095 22.6525 118.02 18.358C117.434 20.136 116.715 23.156 116.715 24.1287C116.715 25.6387 117.466 26.6114 118.901 26.6114C120.696 26.6114 122.034 25.1689 124.09 22.0821L123.536 21.646C122.133 23.424 121.284 24.1287 120.664 24.1287L120.663 24.1281ZM111.721 24.0275C110.644 24.0275 110.252 22.8536 110.252 21.1756C110.252 15.9415 113.483 9.39932 117.302 9.39932C118.379 9.39932 119.292 10.0365 119.684 11.0436C117.791 18.9615 114.104 24.0275 111.721 24.0275Z" fill="black"/>
<path fill-rule="evenodd" clip-rule="evenodd" d="M148.922 21.6441C147.486 23.4221 146.637 24.1268 146.05 24.1268C145.756 24.1268 145.593 23.9593 145.593 23.6232C145.593 23.3546 145.723 22.7848 145.854 22.1807L148.269 12.0488L149.444 8.12293H148.66L145.984 9.76725C145.103 8.86138 144.091 8.35783 142.558 8.35783C137.434 8.35783 132.376 14.6989 132.376 21.6103C132.376 24.6965 133.648 26.6095 135.9 26.6095C138.576 26.6095 141.317 23.0191 143.276 18.7584C142.656 20.5027 142.068 23.1534 142.068 24.1261C142.068 25.6355 142.851 26.6088 144.287 26.6088C146.05 26.6088 147.42 25.1663 149.476 22.0795L148.922 21.6441ZM137.434 24.0262C136.422 24.0262 135.965 22.9866 135.965 21.3754C135.965 15.7391 139.196 9.39802 142.851 9.39802C143.928 9.39802 144.777 10.0352 145.168 11.0417C143.177 19.0271 139.816 24.0262 137.434 24.0262Z" fill="black"/>
<path fill-rule="evenodd" clip-rule="evenodd" d="M163.641 24.1287C163.347 24.1287 163.184 23.9606 163.184 23.6252C163.184 23.3565 163.315 22.7868 163.478 22.1827L166.023 12.3862C166.121 11.8833 166.219 11.2792 166.219 10.8431C166.219 9.29939 165.632 8.36043 164 8.36043C160.867 8.36043 157.212 12.856 155.254 16.6475L157.441 8.36043H156.951L151.273 9.80294L151.175 10.3065L153.1 11.4135L149.478 26.2766H153.035L154.21 21.4786C155.646 15.5399 160.149 10.7763 162.01 10.7763C162.434 10.7763 162.597 11.0112 162.597 11.4803C162.597 11.749 162.499 12.1513 162.401 12.5543L160.084 21.2774C159.757 22.5188 159.627 23.3572 159.627 24.1294C159.627 25.6056 160.443 26.612 161.879 26.612C163.674 26.612 165.012 25.1695 167.068 22.0827L166.513 21.6467C165.11 23.4247 164.261 24.1287 163.641 24.1287Z" fill="black"/>
<path fill-rule="evenodd" clip-rule="evenodd" d="M130.928 5.91083C132.233 5.91083 133.278 4.80381 133.278 3.49498C133.278 2.32112 132.364 1.34777 131.091 1.34777C129.753 1.34777 128.741 2.42105 128.741 3.76297C128.741 4.93748 129.655 5.91083 130.928 5.91083Z" fill="black"/>
<path fill-rule="evenodd" clip-rule="evenodd" d="M128.513 24.1287C128.22 24.1287 128.056 23.9606 128.056 23.6252C128.056 23.3565 128.187 22.7868 128.35 22.1827L131.711 8.35978H131.222L125.576 9.80229L125.445 10.3058L127.371 11.4129L124.956 21.2768C124.63 22.5519 124.532 23.3565 124.532 24.1287C124.532 25.605 125.315 26.6114 126.751 26.6114C128.513 26.6114 129.884 25.1689 131.94 22.0821L131.385 21.646C129.949 23.424 129.133 24.1287 128.513 24.1287Z" fill="black"/>
<path fill-rule="evenodd" clip-rule="evenodd" d="M20.8229 11.359L11.662 2.99792C10.4608 1.92983 11.252 0.168714 11.252 0.168714L11.0636 0L9.1475 2.42624C8.07125 3.76752 8.26024 5.78559 9.54533 6.92636L18.7069 15.2874C19.9074 16.3555 19.1169 18.1166 19.1169 18.1166L19.3053 18.286L21.2214 15.8598C22.2976 14.5178 22.108 12.5004 20.8229 11.359Z" fill="#FF1204"/>
<path fill-rule="evenodd" clip-rule="evenodd" d="M16.5999 16.7163L7.43831 8.35459C6.23778 7.2865 7.02831 5.52539 7.02831 5.52539L6.83933 5.35667L4.92322 7.78291C3.84697 9.12484 4.03596 11.1423 5.32105 12.283L14.4826 20.6441C15.6832 21.7122 14.8926 23.474 14.8926 23.474L15.0816 23.6427L16.9977 21.2164C18.074 19.8745 17.885 17.8571 16.5999 16.7163Z" fill="#FF1204"/>
<path fill-rule="evenodd" clip-rule="evenodd" d="M12.3763 22.073L3.21467 13.7119C2.01414 12.6438 2.80467 10.8827 2.80467 10.8827L2.61633 10.7133L0.700221 13.1396C-0.376029 14.4815 -0.187045 16.4989 1.09805 17.6404L10.259 26.0014C11.4602 27.0695 10.669 28.8306 10.669 28.8306L10.8573 29L12.7734 26.5738C13.8497 25.2318 13.6613 23.2144 12.3763 22.073Z" fill="#FF1204"/>
<path fill-rule="evenodd" clip-rule="evenodd" d="M171.231 26.3019H185.162V22.0055H176.647V16.1232H183.074V12.1247H176.647V6.96919H184.705V2.67282H171.231V26.3019ZM185.444 26.3019H190.958L194.71 17.6436L198.495 26.3019H204.596L198.69 13.9754L203.911 2.67347H198.43L195.2 10.3402L191.904 2.67347H185.836L191.35 14.1408L185.444 26.3019ZM205.151 26.3019H210.566V17.4781H212.752C217.842 17.4781 220.681 15.2641 220.681 10.6705V9.679C220.681 5.05234 218.071 2.67282 212.589 2.67282H205.151V26.3019ZM210.566 13.6451V6.83746H212.393C214.417 6.83746 215.427 7.59732 215.427 9.74583V10.6381C215.427 12.6873 214.416 13.6457 212.393 13.6457L210.566 13.6451ZM221.712 26.3019H227.128V17.0155H228.759L232.87 26.3019H238.579L233.881 16.0239C236.034 15.1979 237.567 13.5782 237.567 10.3065V9.44734C237.567 4.88687 234.729 2.67282 229.346 2.67282H221.711L221.712 26.3019ZM227.128 13.3472V6.86991H229.151C231.207 6.86991 232.283 7.62977 232.283 9.61281V10.4058C232.283 12.4881 231.239 13.3472 229.151 13.3472H227.128ZM239.357 26.3019H253.288V22.0055H244.773V16.1232H251.2V12.1247H244.773V6.96919H252.831V2.67282H239.357V26.3019ZM262.216 26.6653C267.241 26.6653 270.177 23.8231 270.177 19.4281C270.177 14.5367 267.273 13.0169 262.966 11.7944C260.226 10.9677 259.476 10.3071 259.476 8.68813C259.476 7.26703 260.324 6.40789 261.89 6.40789C263.489 6.40789 264.467 7.16775 264.598 9.21698H269.687C269.459 4.52413 266.653 2.34318 261.922 2.34318C257.191 2.34318 254.288 5.05299 254.288 9.0846C254.288 13.4134 256.474 15.1985 261.139 16.6196C263.815 17.4126 264.891 18.0076 264.891 19.9576C264.891 21.6759 263.913 22.6012 262.216 22.6012C259.932 22.6012 259.149 21.4773 259.051 19.1971H253.832C253.962 24.1871 256.866 26.6659 262.217 26.6659L262.216 26.6653ZM279.04 26.6653C284.064 26.6653 287 23.8231 287 19.4281C287 14.5367 284.097 13.0169 279.79 11.7944C277.049 10.9677 276.299 10.3071 276.299 8.68813C276.299 7.26703 277.147 6.40789 278.713 6.40789C280.312 6.40789 281.29 7.16775 281.421 9.21698H286.511C286.282 4.52413 283.477 2.34318 278.746 2.34318C274.015 2.34318 271.111 5.05299 271.111 9.0846C271.111 13.4134 273.297 15.1985 277.963 16.6196C280.638 17.4126 281.715 18.0076 281.715 19.9576C281.715 21.6759 280.736 22.6012 279.04 22.6012C276.756 22.6012 275.973 21.4773 275.875 19.1971H270.655C270.785 24.1871 273.689 26.6659 279.04 26.6659L279.04 26.6653Z" fill="black"/>
</svg>
